<svg width="30" height="36" viewBox="0 0 30 36" fill="none" xmlns="http://www.w3.org/2000/svg">
<mask id="path-1-outside-1_3113_1874" maskUnits="userSpaceOnUse" x="0" y="0" width="30" height="36" fill="black">
<rect fill="white" width="30" height="36"/>
<path d="M24.24 27.56V35H17.616V27.56H1.68V22.76L18.336 1.4H24.24V22.136H28.368V27.56H24.24ZM9.12 22.136H17.616V11.288H17.52L9.12 22.04V22.136Z"/>
</mask>
<path d="M24.24 27.56V26.56H23.24V27.56H24.24ZM24.24 35V36H25.24V35H24.24ZM17.616 35H16.616V36H17.616V35ZM17.616 27.56H18.616V26.56H17.616V27.56ZM1.68 27.56H0.68V28.56H1.68V27.56ZM1.68 22.76L0.891412 22.1451L0.68 22.4162V22.76H1.68ZM18.336 1.4V0.399998H17.8477L17.5474 0.785076L18.336 1.4ZM24.24 1.4H25.24V0.399998H24.24V1.4ZM24.24 22.136H23.24V23.136H24.24V22.136ZM28.368 22.136H29.368V21.136H28.368V22.136ZM28.368 27.56V28.56H29.368V27.56H28.368ZM9.12 22.136H8.12V23.136H9.12V22.136ZM17.616 22.136V23.136H18.616V22.136H17.616ZM17.616 11.288H18.616V10.288H17.616V11.288ZM17.52 11.288V10.288H17.0323L16.732 10.6724L17.52 11.288ZM9.12 22.04L8.33198 21.4244L8.12 21.6957V22.04H9.12ZM23.24 27.56V35H25.24V27.56H23.24ZM24.24 34H17.616V36H24.24V34ZM18.616 35V27.56H16.616V35H18.616ZM17.616 26.56H1.68V28.56H17.616V26.56ZM2.68 27.56V22.76H0.68V27.56H2.68ZM2.46859 23.3749L19.1246 2.01492L17.5474 0.785076L0.891412 22.1451L2.46859 23.3749ZM18.336 2.4H24.24V0.399998H18.336V2.4ZM23.24 1.4V22.136H25.24V1.4H23.24ZM24.24 23.136H28.368V21.136H24.24V23.136ZM27.368 22.136V27.56H29.368V22.136H27.368ZM28.368 26.56H24.24V28.56H28.368V26.56ZM9.12 23.136H17.616V21.136H9.12V23.136ZM18.616 22.136V11.288H16.616V22.136H18.616ZM17.616 10.288H17.52V12.288H17.616V10.288ZM16.732 10.6724L8.33198 21.4244L9.90802 22.6556L18.308 11.9036L16.732 10.6724ZM8.12 22.04V22.136H10.12V22.04H8.12Z" fill="#B5E93B" mask="url(#path-1-outside-1_3113_1874)"/>
</svg>
