<svg width="172" height="26" viewBox="0 0 172 26" fill="none" xmlns="http://www.w3.org/2000/svg">
<path fill-rule="evenodd" clip-rule="evenodd" d="M170.586 20.256H161.69V17.632H170.586V9.984L166.874 7.84H161.018L157.306 9.984V21.856L161.018 24H170.586V20.256ZM162.69 18.632H171.586V9.40676L167.142 6.84H160.75L156.306 9.40676V22.4332L160.75 25H171.586V19.256H162.69V18.632ZM161.69 11.584H166.202V14.336H161.69V11.584ZM162.69 13.336H165.202V12.584H162.69V13.336Z" fill="#B5E93B"/>
<path fill-rule="evenodd" clip-rule="evenodd" d="M152.521 9.984L148.809 7.84H145.737L142.729 9.568L139.753 7.84H136.681L134.409 9.15174L133.641 7.84H130.025V24H134.409V11.584H139.081V24H143.465V11.584H148.137V24H152.521V9.984ZM147.137 12.584V25H153.521V9.40676L149.077 6.84H145.47L142.732 8.4132L140.022 6.84H136.413L134.77 7.78888L134.214 6.84H129.025V25H135.409V12.584H138.081V25H144.465V12.584H147.137Z" fill="#B5E93B"/>
<path fill-rule="evenodd" clip-rule="evenodd" d="M105.714 12.744V7H108.658V4.73429L115.042 1.05301V7H118.562V12.744H115.042V19.256H118.562V25H113.102L108.658 22.4332V12.744H105.714ZM109.658 11.744V21.856L113.37 24H117.562V20.256H114.042V11.744H117.562V8H114.042V2.784L109.658 5.312V8H106.714V11.744H109.658Z" fill="#B5E93B"/>
<path fill-rule="evenodd" clip-rule="evenodd" d="M95.909 11.744H103.845V8H95.237L91.525 10.144V21.856L95.237 24H103.845V20.256H95.909V11.744ZM96.909 19.256H104.845V25H94.9689L90.525 22.4332V9.56677L94.9689 7H104.845V12.744H96.909V19.256Z" fill="#B5E93B"/>
<path fill-rule="evenodd" clip-rule="evenodd" d="M77.8315 17.696H82.3435V20.48H77.8315V17.696ZM78.8315 19.48H81.3435V18.696H78.8315V19.48ZM73.4475 22.016L77.1595 24.16H80.0715L82.3435 22.848L84.6155 24.16H86.7275V10.144L83.0155 8H75.0475V11.744H82.3435V14.336H77.1595L73.4475 16.48V22.016ZM81.3435 13.336H76.8915L72.4475 15.9028V22.5932L76.8915 25.16H80.3395L82.3435 24.0028L84.3475 25.16H87.7275V9.56677L83.2836 7H74.0475V12.744H81.3435V13.336Z" fill="#B5E93B"/>
<path fill-rule="evenodd" clip-rule="evenodd" d="M58.0887 12.744V7H61.0327V4.73429L67.4167 1.05301V7H70.9367V12.744H67.4167V19.256H70.9367V25H65.4767L61.0327 22.4332V12.744H58.0887ZM62.0327 11.744V21.856L65.7447 24H69.9367V20.256H66.4167V11.744H69.9367V8H66.4167V2.784L62.0327 5.312V8H59.0887V11.744H62.0327Z" fill="#B5E93B"/>
<path fill-rule="evenodd" clip-rule="evenodd" d="M55.5775 9.984L51.8655 7.84H47.9935L45.7215 9.152L44.9535 7.84H41.3375V24H45.7215V11.584H51.1935V24H55.5775V9.984ZM50.1935 12.584V25H56.5775V9.40676L52.1335 6.84H47.7255L46.0823 7.78889L45.5269 6.84H40.3375V25H46.7215V12.584H50.1935Z" fill="#B5E93B"/>
<path fill-rule="evenodd" clip-rule="evenodd" d="M32.8342 24.16L36.5462 22.016V9.984L32.8342 7.84H26.0182L22.3062 9.984V22.016L26.0182 24.16H32.8342ZM26.6902 11.584H32.1622V20.416H26.6902V11.584ZM27.6902 19.416H31.1622V12.584H27.6902V19.416ZM37.5462 22.5932L33.1023 25.16H25.7502L21.3062 22.5932V9.40676L25.7502 6.84H33.1023L37.5462 9.40676V22.5932Z" fill="#B5E93B"/>
<path fill-rule="evenodd" clip-rule="evenodd" d="M12.0325 16.44H18.5125V22.5932L14.0685 25.16H4.47646L0.0325012 22.5932V3.00677L4.47646 0.440002H14.0685L18.5125 3.00677V9.16H12.0325V6.28H6.5125V19.32H12.0325V16.44ZM13.0325 20.32H5.5125V5.28H13.0325V8.16H17.5125V3.584L13.8005 1.44H4.7445L1.0325 3.584V22.016L4.7445 24.16H13.8005L17.5125 22.016V17.44H13.0325V20.32Z" fill="#B5E93B"/>
</svg>
