<svg width="51" height="290" viewBox="0 0 51 290" fill="none" xmlns="http://www.w3.org/2000/svg">
<path fill-rule="evenodd" clip-rule="evenodd" d="M46.6725 18.7003V3.46392L41.3748 3.46392V19.7379H33.5196V3.46392H20.0014L15.9215 9.79876L15.9215 18.7003L20.0014 25.0351H42.5927L46.6725 18.7003ZM36.9026 16.7039V0.430001H18.0486L12.5386 8.98553L12.5386 19.5135L18.0486 28.069L44.5454 28.069L50.0555 19.5135V0.430001L37.9919 0.430001V16.7039H36.9026ZM21.2192 19.7379V8.76116H28.2219V19.7379H21.2192ZM24.839 16.7039V11.7951H24.6022V16.7039H24.839Z" fill="#B5E93B"/>
<path fill-rule="evenodd" clip-rule="evenodd" d="M20.0014 33.7733L15.9215 40.1081V45.6238L19.2098 50.7572L15.9215 55.836V61.3516L18.4177 65.2283L15.9215 66.5396V70.5262H46.6725V65.229H21.2192V54.7983H46.6725V49.5011H21.2192V39.0705H46.6725V33.7733H20.0014ZM24.6022 42.1044H50.0555V30.7393H18.0486L12.5386 39.2949V46.4332L15.3031 50.749L12.5386 55.019L12.5386 62.1647L13.8068 64.1343L12.5386 64.8001V73.5601H50.0555V62.1951H24.6022V57.8323H50.0555V46.4672H24.6022V42.1044Z" fill="#B5E93B"/>
<path fill-rule="evenodd" clip-rule="evenodd" d="M24.9066 112.276H12.843V107.252H9.15777L1.84167 95.8868H12.843V89.3335H24.9066V95.8868H37.9919V89.3335H50.0555V98.6964L44.5454 107.252H24.9066V112.276ZM41.3748 98.9207H21.5237V92.3675H16.226V98.9207H7.70096L11.111 104.218H16.226V109.242H21.5237V104.218H42.5927L46.6725 97.8831V92.3675H41.3748V98.9207Z" fill="#B5E93B"/>
<path fill-rule="evenodd" clip-rule="evenodd" d="M21.5237 129.866V114.684H16.226V128.828L20.3058 135.163H42.5927L46.6725 128.828V114.684H41.3748V129.866H21.5237ZM37.9919 126.832V111.65H50.0555V129.641L44.5454 138.197H18.3531L12.843 129.641L12.843 111.65H24.9066V126.832H37.9919Z" fill="#B5E93B"/>
<path fill-rule="evenodd" clip-rule="evenodd" d="M34.1894 160.183V149.206H41.6793V160.183H34.1894ZM38.2963 157.149V152.24H37.5724V157.149H38.2963ZM44.4804 149.206L46.977 153.084V159.146L42.8971 165.48H32.9716L28.8917 159.146V149.206H21.5237V162.75H16.226V150.244L20.3058 143.909H46.977V145.329L44.4804 149.206ZM24.9066 152.24V165.784H12.843L12.843 149.431L18.3531 140.875H50.3599V146.142L48.3868 149.206L50.3599 152.271V159.959L44.8499 168.514H31.0188L25.5088 159.959V152.24H24.9066Z" fill="#B5E93B"/>
<path fill-rule="evenodd" clip-rule="evenodd" d="M24.9066 191.952H12.843V186.928H9.15777L1.84167 175.563H12.843V169.01H24.9066V175.563H37.9919V169.01H50.0555V178.372L44.5454 186.928H24.9066V191.952ZM41.3748 178.597H21.5237V172.043H16.226V178.597H7.70096L11.111 183.894H16.226V188.918H21.5237V183.894H42.5927L46.6725 177.559V172.043H41.3748V178.597Z" fill="#B5E93B"/>
<path fill-rule="evenodd" clip-rule="evenodd" d="M20.0014 195.469L15.9215 201.804L15.9215 209.504L18.4181 213.382L15.9215 214.692V218.679H46.6725V213.382H21.2192V200.767H46.6725V195.469H20.0014ZM24.6022 203.801H50.0555V192.435H18.0486L12.5386 200.991L12.5386 210.317L13.8068 212.287L12.5386 212.953V221.713H50.0555V210.348H24.6022V203.801Z" fill="#B5E93B"/>
<path fill-rule="evenodd" clip-rule="evenodd" d="M42.8972 227.414H20.0014L15.9215 233.749L15.9215 244.289L20.0014 250.624H42.8972L46.977 244.289V233.749L42.8972 227.414ZM21.2192 245.327V232.712H41.6793V245.327H21.2192ZM38.2963 242.293V235.746H24.6022V242.293H38.2963ZM44.8499 224.381L50.3599 232.936V245.102L44.8499 253.658H18.0486L12.5386 245.102L12.5386 232.936L18.0486 224.381H44.8499Z" fill="#B5E93B"/>
<path fill-rule="evenodd" clip-rule="evenodd" d="M32.6333 267.859V256.33H44.8499L50.36 264.885V280.874L44.8499 289.43H5.87003L0.359985 280.874L0.359985 264.885L5.87003 256.33H18.0866L18.0866 267.859H12.6063L12.6063 277.901H38.1137V267.859H32.6333ZM41.4966 280.935H9.22331L9.22331 264.825H14.7037V259.364H7.82277L3.74294 265.699L3.74294 280.061L7.82277 286.396H42.8972L46.977 280.061V265.699L42.8972 259.364H36.0163V264.825H41.4966V280.935Z" fill="#B5E93B"/>
</svg>
