<svg width="456" height="56" viewBox="0 0 456 56" fill="none" xmlns="http://www.w3.org/2000/svg">
<path fill-rule="evenodd" clip-rule="evenodd" d="M452.255 20.7444V16.2088H446.812L443.331 18.3463L442.154 16.2088H438.574V42.2752H443.331V20.7444H452.255ZM446.395 24.0027H455.32V12.9505H445.991L444.436 13.9048L443.911 12.9505H435.509V45.5335H446.395V24.0027Z" fill="#B5E93B"/>
<path fill-rule="evenodd" clip-rule="evenodd" d="M417.062 42.2752H430.743V37.7396H416.13V31.0145H430.743V19.4411L425.055 15.9482H417.062L411.374 19.4411V38.7823L417.062 42.2752ZM419.195 34.2728H433.808V17.5603L425.877 12.6899H416.241L408.309 17.5603V40.6631L416.241 45.5335H433.808V34.4813H419.195V34.2728ZM416.13 26.479V20.4837H425.987V26.479H416.13Z" fill="#B5E93B"/>
<path fill-rule="evenodd" clip-rule="evenodd" d="M390.449 42.5358H397.853L403.541 39.043V19.4411L397.853 15.9482H390.449L386.967 18.0856L385.79 15.9482H382.21V52.7017H386.967V40.3984L390.449 42.5358ZM398.785 38.0003V20.4837H386.967V38.0003H398.785ZM390.032 34.742H395.72V23.742H390.032V34.742ZM390.032 45.7941H398.675L406.606 40.9237V17.5603L398.675 12.6899H389.627L388.073 13.6442L387.547 12.6899H379.146V55.96H390.032V45.7941Z" fill="#B5E93B"/>
<path fill-rule="evenodd" clip-rule="evenodd" d="M374.367 39.043V19.4411L368.678 15.9482H359.214L353.526 19.4411V39.043L359.214 42.5358H368.678L374.367 39.043ZM358.283 20.4837H369.61V38.0003H358.283V20.4837ZM361.347 34.742H366.545V23.742H361.347V34.742ZM377.431 40.9237L369.5 45.7941H358.393L350.461 40.9237V17.5603L358.393 12.6899H369.5L377.431 17.5603V40.9237Z" fill="#B5E93B"/>
<path fill-rule="evenodd" clip-rule="evenodd" d="M342.829 45.5334L334.898 40.663V0.959991H345.784V34.4813H351.668V45.5334H342.829ZM337.962 38.7823V4.21828H342.719V37.7396H348.603V42.2751H343.651L337.962 38.7823Z" fill="#B5E93B"/>
<path fill-rule="evenodd" clip-rule="evenodd" d="M316.451 42.2752H330.132V37.7396H315.519V31.0145H330.132V19.4411L324.444 15.9482H316.451L310.762 19.4411V38.7823L316.451 42.2752ZM318.584 34.2728H333.197V17.5603L325.265 12.6899H315.629L307.698 17.5603V40.6631L315.629 45.5335H333.197V34.4813H318.584V34.2728ZM315.519 26.479V20.4837H325.375V26.479H315.519Z" fill="#B5E93B"/>
<path fill-rule="evenodd" clip-rule="evenodd" d="M286.62 16.2088H281.961L291.033 42.2752H296.77L305.842 16.2088H301.184L293.926 37.479H293.828L286.62 16.2088ZM293.887 28.0395L288.773 12.9505H277.559L288.899 45.5335H298.904L310.244 12.9505H299.035L293.887 28.0395Z" fill="#B5E93B"/>
<path fill-rule="evenodd" clip-rule="evenodd" d="M263.391 42.2752H277.073V37.7396H262.46V31.0145H277.073V19.4411L271.384 15.9482H263.391L257.703 19.4411V38.7823L263.391 42.2752ZM265.525 34.2728H280.137V17.5603L272.206 12.6899H262.57L254.638 17.5603V40.6631L262.57 45.5335H280.137V34.4813H265.525V34.2728ZM262.46 26.479V20.4837H272.316V26.479H262.46Z" fill="#B5E93B"/>
<path fill-rule="evenodd" clip-rule="evenodd" d="M252.428 40.6631L244.496 45.5335H220.554V2.52399H244.496L252.428 7.39438V40.6631ZM243.675 42.2752H223.619V5.78228H243.675L249.363 9.27517V38.7823L243.675 42.2752ZM228.523 37.5832V10.4742H244.46V37.5832H228.523ZM241.395 34.3249V13.7325H231.587V34.3249H241.395Z" fill="#B5E93B"/>
<path fill-rule="evenodd" clip-rule="evenodd" d="M186.094 12.6898H194.737V0.959991H205.623V45.7941H197.221L196.696 44.8398L195.141 45.7941H186.094L178.162 40.9237V17.5602L186.094 12.6898ZM198.978 42.5358H202.558V4.21828H197.801V18.0856L194.32 15.9481H186.915L181.227 19.441V39.0429L186.915 42.5358H194.32L197.801 40.3984L198.978 42.5358ZM197.801 38.0003V20.4837H185.984V38.0003H197.801ZM194.737 34.742V23.742H189.048V34.742H194.737Z" fill="#B5E93B"/>
<path fill-rule="evenodd" clip-rule="evenodd" d="M173.383 19.4411L167.695 15.9482H160.781L157.299 18.0856L156.122 15.9482H152.542V42.2752H157.299V20.4837H168.626V42.2752H173.383V19.4411ZM165.562 23.742V45.5335H176.448V17.5603L168.516 12.6899H159.959L158.405 13.6442L157.879 12.6899H149.478V45.5335H160.364V23.742H165.562Z" fill="#B5E93B"/>
<path fill-rule="evenodd" clip-rule="evenodd" d="M131.031 42.2752H144.712V37.7396H130.099V31.0145H144.712V19.4411L139.024 15.9482H131.031L125.343 19.4411V38.7823L131.031 42.2752ZM133.164 34.2728H147.777V17.5603L139.845 12.6899H130.209L122.278 17.5603V40.6631L130.209 45.5335H147.777V34.4813H133.164V34.2728ZM130.099 26.479V20.4837H139.955V26.479H130.099Z" fill="#B5E93B"/>
<path fill-rule="evenodd" clip-rule="evenodd" d="M100.251 24.0026V12.9505H104.763V9.94843L115.649 3.26685V12.9505H121.533V24.0026H115.649V34.4813H121.533V45.5334H112.694L104.763 40.6631V24.0026H100.251ZM112.584 20.7443H118.469V16.2088H112.584V8.91023L107.828 11.8297V16.2088H103.316V20.7443H107.828V38.7823L113.516 42.2751H118.469V37.7396H112.584V20.7443Z" fill="#B5E93B"/>
<path fill-rule="evenodd" clip-rule="evenodd" d="M97.4337 19.4411L91.7455 15.9482H84.8313L81.3497 18.0856L80.1728 15.9482H76.5931V42.2752H81.3497V20.4837H92.6771V42.2752H97.4337V19.4411ZM89.6124 23.742V45.5335H100.498V17.5603L92.5669 12.6899H84.0099L82.4555 13.6442L81.93 12.6899H73.5283V45.5335H84.4145V23.742H89.6124Z" fill="#B5E93B"/>
<path fill-rule="evenodd" clip-rule="evenodd" d="M68.7491 39.043V19.4411L63.0609 15.9482H53.5968L47.9085 19.4411V39.043L53.5968 42.5358H63.0609L68.7491 39.043ZM52.6651 20.4837H63.9926V38.0003H52.6651V20.4837ZM55.7299 34.742H60.9278V23.742H55.7299V34.742ZM71.8139 40.9237L63.8824 45.7941H52.7753L44.8438 40.9237V17.5603L52.7753 12.6899H63.8824L71.8139 17.5603V40.9237Z" fill="#B5E93B"/>
<path fill-rule="evenodd" clip-rule="evenodd" d="M42.5306 20.7444V16.2088H37.0875L33.6061 18.3461L32.429 16.2088H28.8493V42.2752H33.6059V20.7444H42.5306ZM36.6707 24.0027H45.5954V12.9505H36.2662L34.7117 13.9048L34.1863 12.9505H25.7845V45.5335H36.6707V24.0027Z" fill="#B5E93B"/>
<path fill-rule="evenodd" clip-rule="evenodd" d="M11.3532 45.5335H0.319946V2.52399H26.5055V13.7325H11.3532V17.9031H23.5633V29.1117H11.3532V45.5335ZM8.28841 25.8534H20.4985V21.1614H8.28841V10.4742H23.4407V5.78228H3.38474V42.2752H8.28841V25.8534Z" fill="#B5E93B"/>
</svg>
