<svg width="47" height="426" viewBox="0 0 47 426" fill="none" xmlns="http://www.w3.org/2000/svg">
<path fill-rule="evenodd" clip-rule="evenodd" d="M46 18.2486V29.4866L0.579956 29.4866L0.579956 18.2486H12.7473L12.73 18.2186L12.73 8.45651L17.6163 -0.00335693L46 -0.00335693V11.2346L23.428 11.2346V18.2486L46 18.2486ZM20.428 8.23465L43 8.23465V2.99664L19.348 2.99664L15.73 9.26065L15.73 17.4146L17.944 21.2486H3.57996L3.57996 26.4866L43 26.4866V21.2486H20.428V8.23465Z" fill="#B5E93B"/>
<path fill-rule="evenodd" clip-rule="evenodd" d="M20.698 49.0396V34.0276H16V48.0136L19.618 54.2776H39.382L43 48.0136V34.0276H38.302V49.0396H20.698ZM35.302 46.0396V31.0276L46 31.0276V48.8178L41.1137 57.2776H17.8863L13 48.8178L13 31.0276H23.698V46.0396H35.302Z" fill="#B5E93B"/>
<path fill-rule="evenodd" clip-rule="evenodd" d="M13 59.9088H46V71.1468H13V59.9088ZM12.358 71.4168H0.579956L0.579956 59.6388H12.358V71.4168ZM16 62.9088V68.1468H43V62.9088H16ZM9.35795 68.4168V62.6388H3.57996L3.57996 68.4168H9.35795Z" fill="#B5E93B"/>
<path fill-rule="evenodd" clip-rule="evenodd" d="M19.348 76.7872L15.73 83.0512V88.5052L18.646 93.5812L15.73 98.6032V104.057L17.944 107.891L17.942 107.892L15.73 109.187V113.129H43V107.891H20.428V97.5772H43V92.3392H20.428V82.0252H43V76.7872H19.348ZM23.428 85.0252H46V73.7872H17.6163L12.73 82.2471V89.3056L15.1816 93.5732L12.73 97.7954L12.73 104.861L13.8546 106.809L12.73 107.467V116.129H46V104.891H23.428V100.577H46V89.3392H23.428V85.0252Z" fill="#B5E93B"/>
<path fill-rule="evenodd" clip-rule="evenodd" d="M43 150.846V135.78H38.302V151.872H31.336V135.78H19.348L15.73 142.044V150.846L19.348 157.11H39.382L43 150.846ZM34.336 148.872V132.78H17.6163L12.73 141.24L12.73 151.65L17.6163 160.11H41.1137L46 151.65V132.78H35.302V148.872H34.336ZM20.428 151.872V141.018H26.638V151.872H20.428ZM23.638 148.872V144.018H23.428V148.872H23.638Z" fill="#B5E93B"/>
<path fill-rule="evenodd" clip-rule="evenodd" d="M20.698 163.032H16V169.026L18.214 172.86L16 174.156V178.098H43V172.86H20.698V163.032ZM23.698 169.86V160.032H13L13 169.83L14.1247 171.778L13 172.436V181.098H46V169.86H23.698Z" fill="#B5E93B"/>
<path fill-rule="evenodd" clip-rule="evenodd" d="M43 201.787V186.721H38.302V202.813H31.336V186.721H19.348L15.73 192.985V201.787L19.348 208.051H39.382L43 201.787ZM34.336 199.813V183.721H17.6163L12.73 192.181L12.73 202.591L17.6163 211.051H41.1137L46 202.591V183.721H35.302V199.813H34.336ZM20.428 202.813V191.959H26.638V202.813H20.428ZM23.638 199.813V194.959H23.428V199.813H23.638Z" fill="#B5E93B"/>
<path fill-rule="evenodd" clip-rule="evenodd" d="M13 213.682H46V224.92H13V213.682ZM12.358 225.19H0.579956L0.579956 213.412H12.358V225.19ZM16 216.682V221.92H43V216.682H16ZM9.35795 222.19V216.412H3.57996L3.57996 222.19H9.35795Z" fill="#B5E93B"/>
<path fill-rule="evenodd" clip-rule="evenodd" d="M23.698 249.176H13V244.208H9.73193L3.24402 232.97H13V226.49H23.698V232.97H35.302V226.49H46V235.748L41.1137 244.208H23.698V249.176ZM38.302 235.97H20.698V229.49H16V235.97H8.44003L11.464 241.208H16V246.176H20.698V241.208H39.382L43 234.944V229.49H38.302V235.97Z" fill="#B5E93B"/>
<path fill-rule="evenodd" clip-rule="evenodd" d="M0.579956 264.465H21.244L13 257.645V243.462L16 246.024V246.176H16.1774L28.2502 256.486L46 242.04V256.228L36.6635 263.606L37.6755 264.465H46V275.703H0.579956L0.579956 264.465ZM36.574 267.465L31.93 263.523L43 254.775V248.349L28.204 260.391L16 249.969V256.233L29.446 267.357V267.465H3.57996L3.57996 272.703H43V267.465H36.574Z" fill="#B5E93B"/>
<path fill-rule="evenodd" clip-rule="evenodd" d="M31.93 297.444V286.59H38.572V297.444H31.93ZM35.572 294.444V289.59H34.93V294.444H35.572ZM41.056 286.59L43.27 290.424V296.418L39.652 302.682H30.85L27.232 296.418V286.59H20.698V299.982H16V287.616L19.618 281.352H43.27V282.756L41.056 286.59ZM23.698 289.59V302.982H13L13 286.812L17.8863 278.352H46.27V283.56L44.5203 286.59L46.27 289.62V297.222L41.3837 305.682H29.1183L24.232 297.222V289.59H23.698Z" fill="#B5E93B"/>
<path fill-rule="evenodd" clip-rule="evenodd" d="M23.698 328.858H13V323.89H9.73193L3.24402 312.652H13V306.172H23.698V312.652H35.302V306.172H46V315.43L41.1137 323.89H23.698V328.858ZM38.302 315.652H20.698V309.172H16V315.652H8.44003L11.464 320.89H16V325.858H20.698V320.89H39.382L43 314.626V309.172H38.302V315.652Z" fill="#B5E93B"/>
<path fill-rule="evenodd" clip-rule="evenodd" d="M19.348 332.335L15.73 338.599L15.73 346.213L17.9439 350.047L15.73 351.343V355.285H43V350.047H20.428V337.573H43V332.335H19.348ZM23.428 340.573H46V329.335H17.6163L12.73 337.795L12.73 347.017L13.8546 348.965L12.73 349.623V358.285H46V347.047H23.428V340.573Z" fill="#B5E93B"/>
<path fill-rule="evenodd" clip-rule="evenodd" d="M39.652 363.923H19.348L15.73 370.187L15.73 380.609L19.348 386.873H39.652L43.27 380.609V370.187L39.652 363.923ZM20.428 381.635V369.161H38.572V381.635H20.428ZM35.572 378.635V372.161H23.428V378.635H35.572ZM41.3837 360.923L46.27 369.383V381.413L41.3837 389.873H17.6163L12.73 381.413L12.73 369.383L17.6163 360.923H41.3837Z" fill="#B5E93B"/>
<path fill-rule="evenodd" clip-rule="evenodd" d="M46 425.14H2.19995L2.19995 413.74H17.0369L2.19995 401.349L2.19995 387.023L22.8786 404.414L46 385.383V399.749L31.4467 411.643L33.9415 413.74H46V425.14ZM32.848 416.74L26.746 411.61L43 398.326V391.738L22.858 408.316L5.19995 393.466V399.946L25.18 416.632V416.74H5.19995V422.14H43V416.74H32.848Z" fill="#B5E93B"/>
</svg>
