<svg width="41" height="420" viewBox="0 0 41 420" fill="none" xmlns="http://www.w3.org/2000/svg">
<mask id="path-1-outside-1_37_61" maskUnits="userSpaceOnUse" x="-3" y="-4" width="47" height="427" fill="black">
<rect fill="white" x="-3" y="-4" width="47" height="427"/>
<path d="M40 419.14H2.2V413.74H22.18V413.632L2.2 396.946L2.2 390.466L19.858 405.316L40 388.738V395.326L23.746 408.61L29.848 413.74H40V419.14ZM36.652 360.923L40.27 367.187V377.609L36.652 383.873H16.348L12.73 377.609V367.187L16.348 360.923H36.652ZM17.428 378.635H35.572V366.161H17.428V378.635ZM16.348 329.335H40V334.573H17.428V347.047H40V352.285H12.73V348.343L14.944 347.047L12.73 343.213L12.73 335.599L16.348 329.335ZM17.698 322.858H13V317.89H8.464L5.44 312.652H13V306.172H17.698V312.652H35.302V306.172H40V311.626L36.382 317.89H17.698V322.858ZM28.93 294.444H35.572V283.59H28.93V294.444ZM40.27 293.418L36.652 299.682H27.85L24.232 293.418V283.59H17.698V296.982H13V284.616L16.618 278.352H40.27V279.756L38.056 283.59L40.27 287.424V293.418ZM0.579999 264.465H26.446V264.357L13 253.233V246.969L25.204 257.391L40 245.349L40 251.775L28.93 260.523L33.574 264.465H40V269.703H0.579999V264.465ZM17.698 243.176H13V238.208H8.464L5.44 232.97H13V226.49H17.698V232.97H35.302V226.49H40V231.944L36.382 238.208H17.698V243.176ZM13 213.682H40V218.92H13V213.682ZM6.358 219.19H0.579999V213.412H6.358V219.19ZM35.302 183.721H40V198.787L36.382 205.051H16.348L12.73 198.787V189.985L16.348 183.721H28.336V199.813H35.302V183.721ZM17.428 199.813H23.638V188.959H17.428V199.813ZM17.698 160.032V169.86H40V175.098H13V171.156L15.214 169.86L13 166.026L13 160.032H17.698ZM35.302 132.78H40L40 147.846L36.382 154.11H16.348L12.73 147.846V139.044L16.348 132.78H28.336L28.336 148.872H35.302L35.302 132.78ZM17.428 148.872H23.638V138.018H17.428V148.872ZM16.348 73.7872H40V79.0252H17.428V89.3392H40V94.5772H17.428V104.891H40V110.129H12.73V106.187L14.944 104.891L12.73 101.057V95.6032L15.646 90.5812L12.73 85.5052V80.0512L16.348 73.7872ZM13 59.9088H40V65.1468H13V59.9088ZM6.358 65.4168H0.579999V59.6388H6.358V65.4168ZM17.698 46.0397H35.302V31.0277H40V45.0137L36.382 51.2777H16.618L13 45.0137V31.0277H17.698V46.0397ZM40 18.2486V23.4866H0.579999V18.2486H14.944L12.73 14.4146V6.26064L16.348 -0.00336182H40V5.23464H17.428L17.428 18.2486H40Z"/>
</mask>
<path d="M40 419.14V422.14H43V419.14H40ZM2.2 419.14H-0.800003V422.14H2.2V419.14ZM2.2 413.74V410.74H-0.800003V413.74H2.2ZM22.18 413.74V416.74H25.18V413.74H22.18ZM22.18 413.632H25.18V412.229L24.103 411.329L22.18 413.632ZM2.2 396.946H-0.800003V398.349L0.276997 399.249L2.2 396.946ZM2.2 390.466L4.13089 388.17L-0.800003 384.023V390.466H2.2ZM19.858 405.316L17.9271 407.612L19.8373 409.218L21.7645 407.632L19.858 405.316ZM40 388.738H43V382.383L38.0935 386.422L40 388.738ZM40 395.326L41.8985 397.649L43 396.749V395.326H40ZM23.746 408.61L21.8475 406.287L19.0452 408.577L21.8155 410.906L23.746 408.61ZM29.848 413.74L27.9175 416.036L28.7545 416.74H29.848V413.74ZM40 413.74H43V410.74H40V413.74ZM40 416.14H2.2V422.14H40V416.14ZM5.2 419.14V413.74H-0.800003V419.14H5.2ZM2.2 416.74H22.18V410.74H2.2V416.74ZM25.18 413.74V413.632H19.18V413.74H25.18ZM24.103 411.329L4.123 394.643L0.276997 399.249L20.257 415.935L24.103 411.329ZM5.2 396.946L5.2 390.466H-0.800003L-0.800003 396.946H5.2ZM0.269104 392.762L17.9271 407.612L21.7889 403.02L4.13089 388.17L0.269104 392.762ZM21.7645 407.632L41.9065 391.054L38.0935 386.422L17.9515 403L21.7645 407.632ZM37 388.738V395.326H43V388.738H37ZM38.1015 393.003L21.8475 406.287L25.6445 410.933L41.8985 397.649L38.1015 393.003ZM21.8155 410.906L27.9175 416.036L31.7785 411.444L25.6765 406.314L21.8155 410.906ZM29.848 416.74H40V410.74H29.848V416.74ZM37 413.74V419.14H43V413.74H37ZM36.652 360.923L39.2498 359.423L38.3837 357.923H36.652V360.923ZM40.27 367.187H43.27V366.383L42.8678 365.687L40.27 367.187ZM40.27 377.609L42.8678 379.11L43.27 378.413V377.609H40.27ZM36.652 383.873V386.873H38.3837L39.2498 385.374L36.652 383.873ZM16.348 383.873L13.7502 385.374L14.6163 386.873H16.348V383.873ZM12.73 377.609H9.73V378.413L10.1322 379.11L12.73 377.609ZM12.73 367.187L10.1322 365.687L9.73 366.383V367.187H12.73ZM16.348 360.923V357.923H14.6163L13.7502 359.423L16.348 360.923ZM17.428 378.635H14.428V381.635H17.428V378.635ZM35.572 378.635V381.635H38.572V378.635H35.572ZM35.572 366.161H38.572L38.572 363.161H35.572L35.572 366.161ZM17.428 366.161L17.428 363.161H14.428V366.161H17.428ZM34.0542 362.424L37.6722 368.688L42.8678 365.687L39.2498 359.423L34.0542 362.424ZM37.27 367.187V377.609H43.27V367.187H37.27ZM37.6722 376.109L34.0542 382.373L39.2498 385.374L42.8678 379.11L37.6722 376.109ZM36.652 380.873H16.348V386.873H36.652V380.873ZM18.9458 382.373L15.3278 376.109L10.1322 379.11L13.7502 385.374L18.9458 382.373ZM15.73 377.609V367.187H9.73V377.609H15.73ZM15.3278 368.688L18.9458 362.424L13.7502 359.423L10.1322 365.687L15.3278 368.688ZM16.348 363.923H36.652V357.923H16.348V363.923ZM17.428 381.635H35.572V375.635H17.428V381.635ZM38.572 378.635V366.161H32.572V378.635H38.572ZM35.572 363.161H17.428L17.428 369.161H35.572L35.572 363.161ZM14.428 366.161V378.635H20.428V366.161H14.428ZM16.348 329.335V326.335H14.6163L13.7502 327.835L16.348 329.335ZM40 329.335H43V326.335H40V329.335ZM40 334.573V337.573H43V334.573H40ZM17.428 334.573V331.573H14.428V334.573H17.428ZM17.428 347.047H14.428V350.047H17.428V347.047ZM40 347.047H43V344.047H40V347.047ZM40 352.285V355.285H43V352.285H40ZM12.73 352.285H9.73V355.285H12.73V352.285ZM12.73 348.343L11.2145 345.754L9.73 346.623V348.343H12.73ZM14.944 347.047L16.4595 349.637L19.0333 348.13L17.5419 345.547L14.944 347.047ZM12.73 343.213H9.73V344.017L10.1321 344.714L12.73 343.213ZM12.73 335.599L10.1322 334.099L9.73 334.795V335.599H12.73ZM16.348 332.335H40V326.335H16.348V332.335ZM37 329.335V334.573H43V329.335H37ZM40 331.573H17.428V337.573H40V331.573ZM14.428 334.573L14.428 347.047H20.428V334.573H14.428ZM17.428 350.047H40V344.047H17.428V350.047ZM37 347.047V352.285H43V347.047H37ZM40 349.285H12.73V355.285H40V349.285ZM15.73 352.285V348.343H9.73V352.285H15.73ZM14.2455 350.933L16.4595 349.637L13.4285 344.458L11.2145 345.754L14.2455 350.933ZM17.5419 345.547L15.3279 341.713L10.1321 344.714L12.3461 348.548L17.5419 345.547ZM15.73 343.213V335.599H9.73L9.73 343.213H15.73ZM15.3278 337.1L18.9458 330.836L13.7502 327.835L10.1322 334.099L15.3278 337.1ZM17.698 322.858V325.858H20.698V322.858H17.698ZM13 322.858H10V325.858H13V322.858ZM13 317.89H16V314.89H13V317.89ZM8.464 317.89L5.86589 319.39L6.7319 320.89H8.464V317.89ZM5.44 312.652V309.652H0.243984L2.84189 314.152L5.44 312.652ZM13 312.652V315.652H16V312.652H13ZM13 306.172V303.172H10V306.172H13ZM17.698 306.172H20.698V303.172H17.698V306.172ZM17.698 312.652H14.698V315.652H17.698V312.652ZM35.302 312.652V315.652H38.302V312.652H35.302ZM35.302 306.172V303.172H32.302V306.172H35.302ZM40 306.172H43V303.172H40V306.172ZM40 311.626L42.5978 313.126L43 312.43V311.626H40ZM36.382 317.89V320.89H38.1137L38.9798 319.39L36.382 317.89ZM17.698 317.89V314.89H14.698V317.89H17.698ZM17.698 319.858H13V325.858H17.698V319.858ZM16 322.858V317.89H10V322.858H16ZM13 314.89H8.464V320.89H13V314.89ZM11.0621 316.39L8.03811 311.152L2.84189 314.152L5.86589 319.39L11.0621 316.39ZM5.44 315.652H13V309.652H5.44V315.652ZM16 312.652V306.172H10V312.652H16ZM13 309.172H17.698V303.172H13V309.172ZM14.698 306.172V312.652H20.698V306.172H14.698ZM17.698 315.652H35.302V309.652H17.698V315.652ZM38.302 312.652V306.172H32.302V312.652H38.302ZM35.302 309.172H40V303.172H35.302V309.172ZM37 306.172V311.626H43V306.172H37ZM37.4022 310.125L33.7842 316.389L38.9798 319.39L42.5978 313.126L37.4022 310.125ZM36.382 314.89H17.698V320.89H36.382V314.89ZM14.698 317.89V322.858H20.698V317.89H14.698ZM28.93 294.444H25.93V297.444H28.93V294.444ZM35.572 294.444V297.444H38.572V294.444H35.572ZM35.572 283.59H38.572V280.59H35.572V283.59ZM28.93 283.59V280.59H25.93V283.59H28.93ZM40.27 293.418L42.8678 294.918L43.27 294.222V293.418H40.27ZM36.652 299.682V302.682H38.3837L39.2498 301.182L36.652 299.682ZM27.85 299.682L25.2522 301.182L26.1183 302.682H27.85V299.682ZM24.232 293.418H21.232V294.222L21.6342 294.918L24.232 293.418ZM24.232 283.59H27.232V280.59H24.232V283.59ZM17.698 283.59V280.59H14.698V283.59H17.698ZM17.698 296.982V299.982H20.698V296.982H17.698ZM13 296.982H10V299.982H13V296.982ZM13 284.616L10.4022 283.115L10 283.812V284.616H13ZM16.618 278.352V275.352H14.8863L14.0202 276.851L16.618 278.352ZM40.27 278.352H43.27V275.352H40.27V278.352ZM40.27 279.756L42.8679 281.256L43.27 280.56V279.756H40.27ZM38.056 283.59L35.4581 282.09L34.5917 283.59L35.4581 285.09L38.056 283.59ZM40.27 287.424H43.27V286.62L42.8679 285.924L40.27 287.424ZM28.93 297.444H35.572V291.444H28.93V297.444ZM38.572 294.444V283.59H32.572V294.444H38.572ZM35.572 280.59H28.93V286.59H35.572V280.59ZM25.93 283.59V294.444H31.93V283.59H25.93ZM37.6722 291.917L34.0542 298.181L39.2498 301.182L42.8678 294.918L37.6722 291.917ZM36.652 296.682H27.85V302.682H36.652V296.682ZM30.4478 298.181L26.8298 291.917L21.6342 294.918L25.2522 301.182L30.4478 298.181ZM27.232 293.418V283.59H21.232V293.418H27.232ZM24.232 280.59H17.698V286.59H24.232V280.59ZM14.698 283.59V296.982H20.698V283.59H14.698ZM17.698 293.982H13V299.982H17.698V293.982ZM16 296.982V284.616H10V296.982H16ZM15.5978 286.116L19.2158 279.852L14.0202 276.851L10.4022 283.115L15.5978 286.116ZM16.618 281.352H40.27V275.352H16.618V281.352ZM37.27 278.352V279.756H43.27V278.352H37.27ZM37.6721 278.256L35.4581 282.09L40.6539 285.09L42.8679 281.256L37.6721 278.256ZM35.4581 285.09L37.6721 288.924L42.8679 285.924L40.6539 282.09L35.4581 285.09ZM37.27 287.424V293.418H43.27V287.424H37.27ZM0.579999 264.465V261.465H-2.42L-2.42 264.465H0.579999ZM26.446 264.465V267.465H29.446V264.465H26.446ZM26.446 264.357H29.446V262.946L28.3583 262.046L26.446 264.357ZM13 253.233H10V254.645L11.0877 255.545L13 253.233ZM13 246.969L14.9482 244.688L10 240.462V246.969H13ZM25.204 257.391L23.2558 259.673L25.1578 261.297L27.0977 259.718L25.204 257.391ZM40 245.349H43V239.04L38.1063 243.023L40 245.349ZM40 251.775L41.86 254.129L43 253.228V251.775H40ZM28.93 260.523L27.0699 258.17L24.1964 260.44L26.9886 262.811L28.93 260.523ZM33.574 264.465L31.6326 266.753L32.4724 267.465H33.574V264.465ZM40 264.465H43V261.465H40V264.465ZM40 269.703V272.703H43V269.703H40ZM0.579999 269.703H-2.42V272.703H0.579999V269.703ZM0.579999 267.465H26.446V261.465H0.579999V267.465ZM29.446 264.465V264.357H23.446V264.465H29.446ZM28.3583 262.046L14.9123 250.922L11.0877 255.545L24.5337 266.669L28.3583 262.046ZM16 253.233L16 246.969H10V253.233H16ZM11.0518 249.251L23.2558 259.673L27.1522 255.11L14.9482 244.688L11.0518 249.251ZM27.0977 259.718L41.8937 247.676L38.1063 243.023L23.3103 255.065L27.0977 259.718ZM37 245.349L37 251.775H43L43 245.349H37ZM38.14 249.422L27.0699 258.17L30.79 262.877L41.86 254.129L38.14 249.422ZM26.9886 262.811L31.6326 266.753L35.5154 262.178L30.8714 258.236L26.9886 262.811ZM33.574 267.465H40V261.465H33.574V267.465ZM37 264.465V269.703H43V264.465H37ZM40 266.703H0.579999V272.703H40V266.703ZM3.58 269.703V264.465H-2.42V269.703H3.58ZM17.698 243.176V246.176H20.698V243.176H17.698ZM13 243.176H10V246.176H13V243.176ZM13 238.208H16V235.208H13V238.208ZM8.464 238.208L5.86589 239.708L6.7319 241.208H8.464V238.208ZM5.44 232.97V229.97H0.243984L2.84189 234.47L5.44 232.97ZM13 232.97V235.97H16V232.97H13ZM13 226.49V223.49H10V226.49H13ZM17.698 226.49H20.698V223.49H17.698V226.49ZM17.698 232.97H14.698V235.97H17.698V232.97ZM35.302 232.97V235.97H38.302V232.97H35.302ZM35.302 226.49V223.49H32.302V226.49H35.302ZM40 226.49H43V223.49H40V226.49ZM40 231.944L42.5978 233.444L43 232.748V231.944H40ZM36.382 238.208V241.208H38.1137L38.9798 239.708L36.382 238.208ZM17.698 238.208V235.208H14.698V238.208H17.698ZM17.698 240.176H13V246.176H17.698V240.176ZM16 243.176V238.208H10V243.176H16ZM13 235.208H8.464V241.208H13V235.208ZM11.0621 236.708L8.03811 231.47L2.84189 234.47L5.86589 239.708L11.0621 236.708ZM5.44 235.97H13V229.97H5.44V235.97ZM16 232.97V226.49H10V232.97H16ZM13 229.49H17.698V223.49H13V229.49ZM14.698 226.49V232.97H20.698V226.49H14.698ZM17.698 235.97H35.302V229.97H17.698V235.97ZM38.302 232.97V226.49H32.302V232.97H38.302ZM35.302 229.49H40V223.49H35.302V229.49ZM37 226.49V231.944H43V226.49H37ZM37.4022 230.443L33.7842 236.707L38.9798 239.708L42.5978 233.444L37.4022 230.443ZM36.382 235.208H17.698V241.208H36.382V235.208ZM14.698 238.208V243.176H20.698V238.208H14.698ZM13 213.682V210.682H10V213.682H13ZM40 213.682H43V210.682H40V213.682ZM40 218.92V221.92H43V218.92H40ZM13 218.92H10L10 221.92H13L13 218.92ZM6.358 219.19L6.358 222.19H9.358L9.358 219.19H6.358ZM0.579999 219.19H-2.42V222.19H0.579999L0.579999 219.19ZM0.579999 213.412V210.412H-2.42V213.412H0.579999ZM6.358 213.412H9.358V210.412H6.358V213.412ZM13 216.682H40V210.682H13V216.682ZM37 213.682V218.92H43V213.682H37ZM40 215.92H13L13 221.92H40V215.92ZM16 218.92V213.682H10V218.92H16ZM6.358 216.19H0.579999L0.579999 222.19H6.358L6.358 216.19ZM3.58 219.19V213.412H-2.42V219.19H3.58ZM0.579999 216.412H6.358V210.412H0.579999V216.412ZM3.358 213.412V219.19H9.358V213.412H3.358ZM35.302 183.721V180.721H32.302V183.721H35.302ZM40 183.721H43V180.721H40V183.721ZM40 198.787L42.5978 200.288L43 199.591V198.787H40ZM36.382 205.051V208.051H38.1137L38.9798 206.552L36.382 205.051ZM16.348 205.051L13.7502 206.552L14.6163 208.051H16.348V205.051ZM12.73 198.787H9.73V199.591L10.1322 200.288L12.73 198.787ZM12.73 189.985L10.1322 188.485L9.73 189.181V189.985H12.73ZM16.348 183.721V180.721H14.6163L13.7502 182.221L16.348 183.721ZM28.336 183.721H31.336V180.721H28.336V183.721ZM28.336 199.813H25.336V202.813H28.336V199.813ZM35.302 199.813V202.813H38.302V199.813H35.302ZM17.428 199.813H14.428V202.813H17.428V199.813ZM23.638 199.813V202.813H26.638V199.813H23.638ZM23.638 188.959H26.638V185.959H23.638V188.959ZM17.428 188.959V185.959H14.428V188.959H17.428ZM35.302 186.721H40V180.721H35.302V186.721ZM37 183.721V198.787H43V183.721H37ZM37.4022 197.287L33.7842 203.551L38.9798 206.552L42.5978 200.288L37.4022 197.287ZM36.382 202.051H16.348V208.051H36.382V202.051ZM18.9458 203.551L15.3278 197.287L10.1322 200.288L13.7502 206.552L18.9458 203.551ZM15.73 198.787V189.985H9.73V198.787H15.73ZM15.3278 191.486L18.9458 185.222L13.7502 182.221L10.1322 188.485L15.3278 191.486ZM16.348 186.721H28.336V180.721H16.348V186.721ZM25.336 183.721V199.813H31.336V183.721H25.336ZM28.336 202.813H35.302V196.813H28.336V202.813ZM38.302 199.813V183.721H32.302V199.813H38.302ZM17.428 202.813H23.638V196.813H17.428V202.813ZM26.638 199.813V188.959H20.638V199.813H26.638ZM23.638 185.959H17.428V191.959H23.638V185.959ZM14.428 188.959V199.813H20.428V188.959H14.428ZM17.698 160.032H20.698V157.032H17.698V160.032ZM17.698 169.86H14.698V172.86H17.698V169.86ZM40 169.86H43V166.86H40V169.86ZM40 175.098V178.098H43V175.098H40ZM13 175.098H10V178.098H13V175.098ZM13 171.156L11.4845 168.567L10 169.436V171.156H13ZM15.214 169.86L16.7295 172.449L19.3033 170.942L17.8119 168.36L15.214 169.86ZM13 166.026H10V166.83L10.4021 167.526L13 166.026ZM13 160.032V157.032H10V160.032H13ZM14.698 160.032L14.698 169.86H20.698V160.032H14.698ZM17.698 172.86H40V166.86H17.698V172.86ZM37 169.86V175.098H43V169.86H37ZM40 172.098H13V178.098H40V172.098ZM16 175.098V171.156H10V175.098H16ZM14.5155 173.745L16.7295 172.449L13.6985 167.271L11.4845 168.567L14.5155 173.745ZM17.8119 168.36L15.5979 164.526L10.4021 167.526L12.6161 171.36L17.8119 168.36ZM16 166.026V160.032H10L10 166.026H16ZM13 163.032H17.698V157.032H13L13 163.032ZM35.302 132.78V129.78H32.302V132.78H35.302ZM40 132.78H43V129.78H40V132.78ZM40 147.846L42.5978 149.346L43 148.65V147.846H40ZM36.382 154.11V157.11H38.1137L38.9798 155.61L36.382 154.11ZM16.348 154.11L13.7502 155.61L14.6163 157.11H16.348V154.11ZM12.73 147.846H9.73V148.65L10.1322 149.346L12.73 147.846ZM12.73 139.044L10.1322 137.543L9.73 138.24V139.044H12.73ZM16.348 132.78V129.78H14.6163L13.7502 131.279L16.348 132.78ZM28.336 132.78H31.336V129.78H28.336V132.78ZM28.336 148.872H25.336V151.872H28.336V148.872ZM35.302 148.872V151.872H38.302V148.872H35.302ZM17.428 148.872H14.428V151.872H17.428V148.872ZM23.638 148.872V151.872H26.638V148.872H23.638ZM23.638 138.018H26.638V135.018H23.638V138.018ZM17.428 138.018V135.018H14.428V138.018H17.428ZM35.302 135.78H40L40 129.78H35.302L35.302 135.78ZM37 132.78L37 147.846H43L43 132.78H37ZM37.4022 146.345L33.7842 152.609L38.9798 155.61L42.5978 149.346L37.4022 146.345ZM36.382 151.11H16.348V157.11H36.382V151.11ZM18.9458 152.609L15.3278 146.345L10.1322 149.346L13.7502 155.61L18.9458 152.609ZM15.73 147.846V139.044H9.73V147.846H15.73ZM15.3278 140.544L18.9458 134.28L13.7502 131.279L10.1322 137.543L15.3278 140.544ZM16.348 135.78H28.336L28.336 129.78H16.348L16.348 135.78ZM25.336 132.78L25.336 148.872H31.336L31.336 132.78H25.336ZM28.336 151.872H35.302V145.872H28.336V151.872ZM38.302 148.872L38.302 132.78H32.302L32.302 148.872H38.302ZM17.428 151.872H23.638V145.872H17.428V151.872ZM26.638 148.872V138.018H20.638V148.872H26.638ZM23.638 135.018H17.428V141.018H23.638V135.018ZM14.428 138.018V148.872H20.428V138.018H14.428ZM16.348 73.7872V70.7872H14.6163L13.7502 72.2868L16.348 73.7872ZM40 73.7872H43V70.7872H40V73.7872ZM40 79.0252V82.0252H43V79.0252H40ZM17.428 79.0252V76.0252H14.428V79.0252H17.428ZM17.428 89.3392H14.428V92.3392H17.428V89.3392ZM40 89.3392H43V86.3392H40V89.3392ZM40 94.5772V97.5772H43V94.5772H40ZM17.428 94.5772V91.5772H14.428V94.5772H17.428ZM17.428 104.891H14.428V107.891H17.428V104.891ZM40 104.891H43V101.891H40V104.891ZM40 110.129V113.129H43V110.129H40ZM12.73 110.129H9.73V113.129H12.73V110.129ZM12.73 106.187L11.2145 103.598L9.73 104.467L9.73 106.187H12.73ZM14.944 104.891L16.4595 107.48L19.0333 105.974L17.5419 103.391L14.944 104.891ZM12.73 101.057H9.73V101.861L10.1321 102.557L12.73 101.057ZM12.73 95.6032L10.1356 94.0968L9.73 94.7954V95.6032H12.73ZM15.646 90.5812L18.2404 92.0876L19.1104 90.5892L18.2473 89.0868L15.646 90.5812ZM12.73 85.5052H9.73V86.3056L10.1287 86.9996L12.73 85.5052ZM12.73 80.0512L10.1322 78.5508L9.73 79.2471V80.0512H12.73ZM16.348 76.7872H40V70.7872H16.348V76.7872ZM37 73.7872V79.0252H43V73.7872H37ZM40 76.0252H17.428V82.0252H40V76.0252ZM14.428 79.0252V89.3392H20.428V79.0252H14.428ZM17.428 92.3392H40V86.3392H17.428V92.3392ZM37 89.3392V94.5772H43V89.3392H37ZM40 91.5772H17.428V97.5772H40V91.5772ZM14.428 94.5772L14.428 104.891H20.428V94.5772H14.428ZM17.428 107.891H40V101.891H17.428V107.891ZM37 104.891V110.129H43V104.891H37ZM40 107.129H12.73V113.129H40V107.129ZM15.73 110.129V106.187H9.73V110.129H15.73ZM14.2455 108.776L16.4595 107.48L13.4285 102.302L11.2145 103.598L14.2455 108.776ZM17.5419 103.391L15.3279 99.557L10.1321 102.557L12.3461 106.391L17.5419 103.391ZM15.73 101.057V95.6032H9.73V101.057H15.73ZM15.3244 97.1096L18.2404 92.0876L13.0516 89.0748L10.1356 94.0968L15.3244 97.1096ZM18.2473 89.0868L15.3313 84.0108L10.1287 86.9996L13.0447 92.0756L18.2473 89.0868ZM15.73 85.5052V80.0512H9.73V85.5052H15.73ZM15.3278 81.5517L18.9458 75.2877L13.7502 72.2868L10.1322 78.5508L15.3278 81.5517ZM13 59.9088V56.9088H10V59.9088H13ZM40 59.9088H43V56.9088H40V59.9088ZM40 65.1468V68.1468H43V65.1468H40ZM13 65.1468H10V68.1468H13V65.1468ZM6.358 65.4168V68.4168H9.358V65.4168H6.358ZM0.579999 65.4168H-2.42V68.4168H0.579999V65.4168ZM0.579999 59.6388V56.6388H-2.42V59.6388H0.579999ZM6.358 59.6388H9.358V56.6388H6.358V59.6388ZM13 62.9088H40V56.9088H13V62.9088ZM37 59.9088V65.1468H43V59.9088H37ZM40 62.1468H13V68.1468H40V62.1468ZM16 65.1468V59.9088H10V65.1468H16ZM6.358 62.4168H0.579999V68.4168H6.358V62.4168ZM3.58 65.4168V59.6388H-2.42L-2.42 65.4168H3.58ZM0.579999 62.6388H6.358V56.6388H0.579999V62.6388ZM3.358 59.6388V65.4168H9.358V59.6388H3.358ZM17.698 46.0397H14.698L14.698 49.0397H17.698V46.0397ZM35.302 46.0397V49.0397H38.302V46.0397H35.302ZM35.302 31.0277V28.0277H32.302V31.0277H35.302ZM40 31.0277H43V28.0277H40V31.0277ZM40 45.0137L42.5978 46.5141L43 45.8178V45.0137H40ZM36.382 51.2777V54.2777H38.1137L38.9798 52.7781L36.382 51.2777ZM16.618 51.2777L14.0202 52.7781L14.8863 54.2777H16.618V51.2777ZM13 45.0137H10V45.8178L10.4022 46.5141L13 45.0137ZM13 31.0277V28.0277H10V31.0277H13ZM17.698 31.0277H20.698V28.0277H17.698V31.0277ZM17.698 49.0397H35.302V43.0397H17.698V49.0397ZM38.302 46.0397V31.0277H32.302V46.0397H38.302ZM35.302 34.0277H40V28.0277H35.302V34.0277ZM37 31.0277V45.0137H43V31.0277H37ZM37.4022 43.5132L33.7842 49.7772L38.9798 52.7781L42.5978 46.5141L37.4022 43.5132ZM36.382 48.2777H16.618V54.2777H36.382V48.2777ZM19.2158 49.7772L15.5978 43.5132L10.4022 46.5141L14.0202 52.7781L19.2158 49.7772ZM16 45.0137V31.0277H10V45.0137H16ZM13 34.0277H17.698V28.0277H13V34.0277ZM14.698 31.0277V46.0397H20.698V31.0277H14.698ZM40 18.2486H43L43 15.2486H40L40 18.2486ZM40 23.4866V26.4866H43V23.4866H40ZM0.579999 23.4866H-2.42V26.4866H0.579999V23.4866ZM0.579999 18.2486V15.2486H-2.42V18.2486H0.579999ZM14.944 18.2486V21.2486H20.1407L17.5419 16.7484L14.944 18.2486ZM12.73 14.4146H9.73V15.2186L10.1321 15.9149L12.73 14.4146ZM12.73 6.26064L10.1322 4.76018L9.73 5.45651V6.26064H12.73ZM16.348 -0.00336182V-3.00336H14.6163L13.7502 -1.50382L16.348 -0.00336182ZM40 -0.00336182H43V-3.00336H40V-0.00336182ZM40 5.23464V8.23464H43V5.23464H40ZM17.428 5.23464V2.23464H14.428V5.23464H17.428ZM17.428 18.2486H14.428V21.2486H17.428V18.2486ZM37 18.2486V23.4866H43V18.2486H37ZM40 20.4866H0.579999V26.4866H40V20.4866ZM3.58 23.4866V18.2486H-2.42V23.4866H3.58ZM0.579999 21.2486H14.944V15.2486H0.579999V21.2486ZM17.5419 16.7484L15.3279 12.9144L10.1321 15.9149L12.3461 19.7489L17.5419 16.7484ZM15.73 14.4146V6.26064H9.73V14.4146H15.73ZM15.3278 7.7611L18.9458 1.4971L13.7502 -1.50382L10.1322 4.76018L15.3278 7.7611ZM16.348 2.99664H40V-3.00336H16.348V2.99664ZM37 -0.00336182V5.23464H43V-0.00336182H37ZM40 2.23464H17.428V8.23464H40V2.23464ZM14.428 5.23464V18.2486H20.428L20.428 5.23464H14.428ZM17.428 21.2486H40L40 15.2486H17.428L17.428 21.2486Z" fill="#B5E93B" mask="url(#path-1-outside-1_37_61)"/>
</svg>
