<svg width="260" height="27" viewBox="0 0 260 27" fill="none" xmlns="http://www.w3.org/2000/svg">
<path fill-rule="evenodd" clip-rule="evenodd" d="M249.159 26H242.775V0.640015H249.159V8.41979L250.163 7.84002H254.891L259.335 10.4068V26H252.951V13.584H249.159V26ZM253.951 12.584V25H258.335V10.984L254.623 8.84002H250.431L248.159 10.152V1.64001H243.775V25H248.159V12.584H253.951Z" fill="#B5E93B"/>
<path fill-rule="evenodd" clip-rule="evenodd" d="M231.69 12.744H239.626V9H231.018L227.306 11.144V22.856L231.018 25H239.626V21.256H231.69V12.744ZM232.69 20.256H240.626V26H230.75L226.306 23.4332V10.5668L230.75 8H240.626V13.744H232.69V20.256Z" fill="#B5E93B"/>
<path fill-rule="evenodd" clip-rule="evenodd" d="M223.503 8.00002V26H217.119V8.00002H223.503ZM216.959 7.02401V0.640015H223.663V7.02401H216.959ZM222.503 9.00002H218.119V25H222.503V9.00002ZM217.959 6.02401H222.663V1.64001H217.959V6.02401Z" fill="#B5E93B"/>
<path fill-rule="evenodd" clip-rule="evenodd" d="M213.334 10.984L209.622 8.83997H206.55L203.542 10.568L200.566 8.83997H197.494L195.222 10.1517L194.454 8.83997H190.838V25H195.222V12.584H199.894V25H204.278V12.584H208.95V25H213.334V10.984ZM207.95 13.584V26H214.334V10.4067L209.89 7.83997H206.283L203.544 9.41317L200.835 7.83997H197.226L195.582 8.78885L195.027 7.83997H189.838V26H196.222V13.584H198.894V26H205.278V13.584H207.95Z" fill="#B5E93B"/>
<path fill-rule="evenodd" clip-rule="evenodd" d="M177.711 21.256H168.815V18.632H177.711V10.984L173.999 8.83997H168.143L164.431 10.984V22.856L168.143 25H177.711V21.256ZM169.815 19.632H178.711V10.4067L174.267 7.83997H167.875L163.431 10.4067V23.4332L167.875 26H178.711V20.256H169.815V19.632ZM168.815 12.584H173.327V15.336H168.815V12.584ZM169.815 14.336H172.327V13.584H169.815V14.336Z" fill="#B5E93B"/>
<path fill-rule="evenodd" clip-rule="evenodd" d="M161.226 12.744V9H157.994L155.722 10.3117L154.954 9H151.338V25H155.722V12.744H161.226ZM156.722 13.744H162.226V8H157.726L156.082 8.94888L155.527 8H150.338V26H156.722V13.744Z" fill="#B5E93B"/>
<path fill-rule="evenodd" clip-rule="evenodd" d="M146.524 21.256H137.628V18.632H146.524V10.984L142.812 8.83997H136.956L133.244 10.984V22.856L136.956 25H146.524V21.256ZM138.628 19.632H147.524V10.4067L143.08 7.83997H136.688L132.244 10.4067V23.4332L136.688 26H147.524V20.256H138.628V19.632ZM137.628 12.584H142.14V15.336H137.628V12.584ZM138.628 14.336H141.14V13.584H138.628V14.336Z" fill="#B5E93B"/>
<path fill-rule="evenodd" clip-rule="evenodd" d="M129.44 8.00002V26H123.056V8.00002H129.44ZM122.896 7.02401V0.640015H129.6V7.02401H122.896ZM128.44 9.00002H124.056V25H128.44V9.00002ZM123.896 6.02401H128.6V1.64001H123.896V6.02401Z" fill="#B5E93B"/>
<path fill-rule="evenodd" clip-rule="evenodd" d="M109.057 12.744H112.001V22.856L115.713 25H119.905V21.256H116.385V12.744H119.905V8.99997H116.385V3.78397L112.001 6.31197V8.99997H109.057V12.744ZM111.001 7.99997H108.057V13.744H111.001V23.4332L115.445 26H120.905V20.256H117.385V13.744H120.905V7.99997H117.385V2.05298L111.001 5.73426V7.99997Z" fill="#B5E93B"/>
<path fill-rule="evenodd" clip-rule="evenodd" d="M98.0965 0.640015V12.5807L101.629 8.00002H109.23L102.684 16.155L110.112 26H102.51L98.824 20.9811L98.0965 21.8938V26H91.7125V0.640015H98.0965ZM97.0965 21.544L98.8565 19.336L103.017 25H108.105L101.417 16.136L107.145 9.00002H102.121L97.1605 15.432H97.0965V1.64001H92.7125V25H97.0965V21.544Z" fill="#B5E93B"/>
<path fill-rule="evenodd" clip-rule="evenodd" d="M79.019 18.696H83.531V21.48H79.019V18.696ZM80.019 20.48H82.531V19.696H80.019V20.48ZM74.635 23.016L78.347 25.16H81.259L83.531 23.848L85.803 25.16H87.915V11.144L84.203 9H76.235V12.744H83.531V15.336H78.347L74.635 17.48V23.016ZM82.531 14.336H78.079L73.635 16.9028V23.5932L78.079 26.16H81.527L83.531 25.0028L85.535 26.16H88.915V10.5668L84.4711 8H75.235V13.744H82.531V14.336Z" fill="#B5E93B"/>
<path fill-rule="evenodd" clip-rule="evenodd" d="M60.2762 12.744H63.2202V22.856L66.9322 25H71.1242V21.256H67.6042V12.744H71.1242V8.99997H67.6042V3.78397L63.2202 6.31197V8.99997H60.2762V12.744ZM62.2202 7.99997H59.2762V13.744H62.2202V23.4332L66.6642 26H72.1242V20.256H68.6042V13.744H72.1242V7.99997H68.6042V2.05298L62.2202 5.73426V7.99997Z" fill="#B5E93B"/>
<path fill-rule="evenodd" clip-rule="evenodd" d="M56.765 10.984L53.053 8.83997H49.181L46.909 10.152L46.141 8.83997H42.525V25H46.909V12.584H52.381V25H56.765V10.984ZM51.381 13.584V26H57.765V10.4067L53.3211 7.83997H48.913L47.2698 8.78885L46.7144 7.83997H41.525V26H47.909V13.584H51.381Z" fill="#B5E93B"/>
<path fill-rule="evenodd" clip-rule="evenodd" d="M34.0218 25.16L37.7338 23.016V10.984L34.0218 8.83997H27.2058L23.4938 10.984V23.016L27.2058 25.16H34.0218ZM27.8778 12.584H33.3498V21.416H27.8778V12.584ZM28.8778 20.416H32.3498V13.584H28.8778V20.416ZM38.7338 23.5932L34.2898 26.16H26.9377L22.4938 23.5932V10.4067L26.9377 7.83997H34.2898L38.7338 10.4067V23.5932Z" fill="#B5E93B"/>
<path fill-rule="evenodd" clip-rule="evenodd" d="M0.719971 26V1.59998H7.19997V9.98297L14.1459 1.59998H22.0764L12.3977 13.1022L23.0418 26H15.0707L8.39328 17.8553L7.19997 19.2562V26H0.719971ZM6.19997 18.888L8.40797 16.296L15.544 25H20.92L11.096 13.096L19.928 2.59998H14.616L6.26397 12.68H6.19997V2.59998H1.71997V25H6.19997V18.888Z" fill="#B5E93B"/>
</svg>
