<svg width="25" height="110" viewBox="0 0 25 110" fill="none" xmlns="http://www.w3.org/2000/svg">
<path fill-rule="evenodd" clip-rule="evenodd" d="M11.11 11.0422V8.28219L21.49 8.28219L23.5 4.80219V1.77219H20.89V5.37218H11.11V1.77219H8.50003V5.37218H4.30002L5.98002 8.28219H8.50003V11.0422H11.11ZM7.30003 9.48219V12.2422H12.31V9.48219L22.1827 9.48219L24.7 5.12384V0.572189H19.69V4.17219L12.31 4.17219V0.572189H7.30003V4.17219H2.22162L5.28719 9.48219H7.30003Z" fill="#4A4A4A"/>
<path fill-rule="evenodd" clip-rule="evenodd" d="M0.400024 21.6697H12.7095L7.30002 17.1943V10.5469L15.2985 17.3774L24.7 9.72583V16.4008L19.2435 20.7129L20.3707 21.6697H24.7V26.9797H0.400024L0.400024 21.6697ZM19.93 22.8697L17.35 20.6797L23.5 15.8197V12.2497L15.28 18.9397L8.50002 13.1497V16.6297L15.97 22.8097V22.8697H1.60002L1.60002 25.7797H23.5V22.8697H19.93Z" fill="#4A4A4A"/>
<path fill-rule="evenodd" clip-rule="evenodd" d="M17.35 39.5244V33.4944H21.04V39.5244H17.35ZM19.84 38.3244V34.6944H18.55V38.3244H19.84ZM23.65 38.9544L21.64 42.4344H16.75L14.74 38.9544V33.4944H11.11V40.9344H8.49999V34.0644L10.51 30.5844H23.65V31.3644L22.42 33.4944L23.65 35.6244V38.9544ZM23.8057 33.4944L24.85 35.3028V39.276L22.3327 43.6344H16.0573L13.54 39.276V34.6944H12.31V42.1344H7.29999L7.29999 33.7427L9.81731 29.3844H24.85V31.686L23.8057 33.4944Z" fill="#4A4A4A"/>
<path fill-rule="evenodd" clip-rule="evenodd" d="M11.11 55.3098V52.5498H21.49L23.5 49.0698V46.0398H20.89V49.6398H11.11V46.0398H8.50003V49.6398H4.30002L5.98002 52.5498H8.50003V55.3098H11.11ZM7.30003 53.7498V56.5098H12.31V53.7498H22.1827L24.7 49.3914V44.8398H19.69V48.4398H12.31V44.8398H7.30003V48.4398H2.22162L5.28719 53.7498H7.30003Z" fill="#4A4A4A"/>
<path fill-rule="evenodd" clip-rule="evenodd" d="M10.36 58.9086L8.35003 62.3886V66.6186L9.58002 68.7486L8.35003 69.4686V71.6586H23.5V68.7486H10.96V61.8186H23.5V58.9086H10.36ZM12.16 63.0186H24.7V57.7086H9.66735L7.15002 62.0669L7.15002 66.9402L7.94429 68.3156L7.15002 68.7805V72.8586H24.7V67.5486H12.16V63.0186Z" fill="#4A4A4A"/>
<path fill-rule="evenodd" clip-rule="evenodd" d="M23.65 79.9374L21.64 76.4574H10.36L8.35003 79.9374V85.7274L10.36 89.2074H21.64L23.65 85.7274V79.9374ZM10.96 86.2974V79.3674H21.04V86.2974H10.96ZM19.84 85.0974V80.5674H12.16V85.0974H19.84ZM22.3327 75.2574L24.85 79.6158V86.0491L22.3327 90.4074H9.66735L7.15002 86.0491L7.15002 79.6158L9.66735 75.2574H22.3327Z" fill="#4A4A4A"/>
<path fill-rule="evenodd" clip-rule="evenodd" d="M24.7 110H1.29999L1.29999 104.6H10.3629L1.29999 97.0313L1.29999 90.2929L12.3183 99.559L24.7 89.3681V96.1391L16.3503 102.963L18.2974 104.6H24.7V110ZM17.86 105.8L14.47 102.95L23.5 95.57V91.91L12.31 101.12L2.49999 92.87V96.47L13.6 105.74V105.8H2.49999V108.8H23.5V105.8H17.86Z" fill="#4A4A4A"/>
</svg>
