<svg width="23" height="108" viewBox="0 0 23 108" fill="none" xmlns="http://www.w3.org/2000/svg">
<path d="M9.69892 9.88104H7.08892V7.12104H4.56892L2.88892 4.21104H7.08892L7.08892 0.611038H9.69892V4.21104L19.4789 4.21104V0.611038H22.0889V3.64104L20.0789 7.12104L9.69892 7.12104V9.88104Z" fill="#4A4A4A"/>
<path d="M0.188904 21.7085H14.5589V21.6485L7.0889 15.4685V11.9885L13.8689 17.7785L22.0889 11.0885V14.6585L15.9389 19.5185L18.5189 21.7085H22.0889V24.6185H0.188904L0.188904 21.7085Z" fill="#4A4A4A"/>
<path d="M15.9389 38.3633H19.6289V32.3333H15.9389V38.3633ZM22.2389 37.7933L20.2289 41.2733H15.3389L13.3289 37.7933V32.3333H9.69893V39.7733H7.08893L7.08893 32.9033L9.09893 29.4233H22.2389V30.2033L21.0089 32.3333L22.2389 34.4633V37.7933Z" fill="#4A4A4A"/>
<path d="M9.69892 54.1486H7.08892V51.3886H4.56892L2.88892 48.4786H7.08892L7.08892 44.8786H9.69892V48.4786H19.4789V44.8786H22.0889V47.9086L20.0789 51.3886H9.69892V54.1486Z" fill="#4A4A4A"/>
<path d="M8.9489 57.7474H22.0889V60.6574H9.5489V67.5874H22.0889V70.4974H6.9389V68.3074L8.1689 67.5874L6.9389 65.4574L6.9389 61.2274L8.9489 57.7474Z" fill="#4A4A4A"/>
<path d="M20.2289 75.2963L22.2389 78.7763V84.5663L20.2289 88.0463H8.9489L6.9389 84.5663L6.9389 78.7763L8.9489 75.2963H20.2289ZM9.5489 85.1363H19.6289V78.2063H9.5489V85.1363Z" fill="#4A4A4A"/>
<path d="M22.0889 107.639H1.08893L1.08893 104.639H12.1889V104.579L1.08893 95.3089L1.08893 91.7089L10.8989 99.9589L22.0889 90.7489V94.4089L13.0589 101.789L16.4489 104.639H22.0889V107.639Z" fill="#4A4A4A"/>
</svg>
