<svg width="232" height="27" viewBox="0 0 232 27" fill="none" xmlns="http://www.w3.org/2000/svg">
<path fill-rule="evenodd" clip-rule="evenodd" d="M230.078 10.984L226.366 8.83997H222.494L220.222 10.1517L219.454 8.83997H215.838V25H220.222V12.584H225.694V25H230.078V10.984ZM224.694 13.584V26H231.078V10.4067L226.634 7.83997H222.226L220.582 8.78885L220.027 7.83997H214.838V26H221.222V13.584H224.694Z" fill="#B5E93B"/>
<path fill-rule="evenodd" clip-rule="evenodd" d="M211.024 21.256H202.128V18.632H211.024V10.984L207.312 8.83997H201.456L197.744 10.984V22.856L201.456 25H211.024V21.256ZM203.128 19.632H212.024V10.4067L207.58 7.83997H201.188L196.744 10.4067V23.4332L201.188 26H212.024V20.256H203.128V19.632ZM202.128 12.584H206.64V15.336H202.128V12.584ZM203.128 14.336H205.64V13.584H203.128V14.336Z" fill="#B5E93B"/>
<path fill-rule="evenodd" clip-rule="evenodd" d="M182.745 12.744H185.689V22.856L189.401 25H193.593V21.256H190.073V12.744H193.593V8.99997H190.073V3.78397L185.689 6.31197V8.99997H182.745V12.744ZM184.689 7.99997H181.745V13.744H184.689V23.4332L189.133 26H194.593V20.256H191.073V13.744H194.593V7.99997H191.073V2.05298L184.689 5.73426V7.99997Z" fill="#B5E93B"/>
<path fill-rule="evenodd" clip-rule="evenodd" d="M180.221 8.00002V26H173.837V8.00002H180.221ZM173.677 7.02401V0.640015H180.381V7.02401H173.677ZM179.221 9.00002H174.837V25H179.221V9.00002ZM174.677 6.02401H179.381V1.64001H174.677V6.02401Z" fill="#B5E93B"/>
<path fill-rule="evenodd" clip-rule="evenodd" d="M170.024 21.256H161.128V18.632H170.024V10.984L166.312 8.83997H160.456L156.744 10.984V22.856L160.456 25H170.024V21.256ZM162.128 19.632H171.024V10.4067L166.58 7.83997H160.188L155.744 10.4067V23.4332L160.188 26H171.024V20.256H162.128V19.632ZM161.128 12.584H165.64V15.336H161.128V12.584ZM162.128 14.336H164.64V13.584H162.128V14.336Z" fill="#B5E93B"/>
<path fill-rule="evenodd" clip-rule="evenodd" d="M143.757 7.84002H148.485L152.929 10.4068V23.5932L148.485 26.16H143.757L141.753 25.0028L139.749 26.16H136.369V0.640015H142.753V8.41979L143.757 7.84002ZM141.753 10.152V1.64001H137.369V25.16H139.481L141.753 23.848L144.025 25.16H148.217L151.929 23.016V10.984L148.217 8.84002H144.025L141.753 10.152ZM141.753 21.416V12.584H147.545V21.416H141.753ZM146.545 20.416V13.584H142.753V20.416H146.545Z" fill="#B5E93B"/>
<path fill-rule="evenodd" clip-rule="evenodd" d="M134.163 12.744V9H130.931L128.659 10.3117L127.891 9H124.275V25H128.659V12.744H134.163ZM129.659 13.744H135.163V8H130.663L129.02 8.94888L128.464 8H123.275V26H129.659V13.744Z" fill="#B5E93B"/>
<path fill-rule="evenodd" clip-rule="evenodd" d="M114.105 1.59998L122.82 26H116.276L114.58 21.168H107.613L105.917 26H99.3735L108.088 1.59998H114.105ZM106.905 20.168H115.289L116.985 25H121.401L113.401 2.59998H108.793L100.793 25H105.209L106.905 20.168ZM108.249 16.328H113.913L111.129 8.23198H111.065L108.249 16.328ZM111.091 11.1989L109.655 15.328H112.511L111.091 11.1989Z" fill="#B5E93B"/>
<path fill-rule="evenodd" clip-rule="evenodd" d="M89.5863 21.256H80.6903V18.632H89.5863V10.984L85.8743 8.83997H80.0183L76.3063 10.984V22.856L80.0183 25H89.5863V21.256ZM81.6903 19.632H90.5863V10.4067L86.1423 7.83997H79.7502L75.3063 10.4067V23.4332L79.7502 26H90.5863V20.256H81.6903V19.632ZM80.6903 12.584H85.2023V15.336H80.6903V12.584ZM81.6903 14.336H84.2023V13.584H81.6903V14.336Z" fill="#B5E93B"/>
<path fill-rule="evenodd" clip-rule="evenodd" d="M71.515 10.984L67.803 8.83997H63.931L61.659 10.152L60.891 8.83997H57.275V25H61.659V12.584H67.131V25H71.515V10.984ZM66.131 13.584V26H72.515V10.4067L68.0711 7.83997H63.663L62.0198 8.78885L61.4644 7.83997H56.275V26H62.659V13.584H66.131Z" fill="#B5E93B"/>
<path fill-rule="evenodd" clip-rule="evenodd" d="M53.4715 8.00002V26H47.0875V8.00002H53.4715ZM46.9275 7.02401V0.640015H53.6315V7.02401H46.9275ZM52.4715 9.00002H48.0875V25H52.4715V9.00002ZM47.9275 6.02401H52.6315V1.64001H47.9275V6.02401Z" fill="#B5E93B"/>
<path fill-rule="evenodd" clip-rule="evenodd" d="M43.2738 21.256H34.3778V18.632H43.2738V10.984L39.5618 8.83997H33.7058L29.9938 10.984V22.856L33.7058 25H43.2738V21.256ZM35.3778 19.632H44.2738V10.4067L39.8298 7.83997H33.4377L28.9938 10.4067V23.4332L33.4377 26H44.2738V20.256H35.3778V19.632ZM34.3778 12.584H38.8898V15.336H34.3778V12.584ZM35.3778 14.336H37.8898V13.584H35.3778V14.336Z" fill="#B5E93B"/>
<path fill-rule="evenodd" clip-rule="evenodd" d="M19.568 26V16.0432L16.1628 26H10.4756L7.03997 15.8876V26H0.719971V1.59998H8.38701L13.3334 16.0737L18.2516 1.59998H25.888V26H19.568ZM13.368 19.08H13.304L7.67197 2.59998H1.71997V25H6.03997V10.024H6.10397L11.192 25H15.448L20.504 10.216H20.568V25H24.888V2.59998H18.968L13.368 19.08Z" fill="#B5E93B"/>
</svg>
