<svg width="47" height="382" viewBox="0 0 47 382" fill="none" xmlns="http://www.w3.org/2000/svg">
<path fill-rule="evenodd" clip-rule="evenodd" d="M19.348 3.72806L15.73 9.99203L15.73 17.606L17.944 21.44L17.942 21.4412L15.73 22.7361V26.678H43V21.44H20.428V8.96603L43 8.96603V3.72806L19.348 3.72806ZM23.428 11.966L46 11.966V0.728058L17.6163 0.728058L12.73 9.18793L12.73 18.41L13.8546 20.3576L12.73 21.016V29.678L46 29.678V18.44H23.428V11.966Z" fill="#B5E93B"/>
<path fill-rule="evenodd" clip-rule="evenodd" d="M43 50.3672V35.3012H38.302V51.3932H31.336V35.3012H19.348L15.73 41.5652V50.3672L19.348 56.6312H39.382L43 50.3672ZM34.336 48.3932V32.3012H17.6163L12.73 40.761L12.73 51.1713L17.6163 59.6312H41.1137L46 51.1713V32.3012H35.302V48.3932H34.336ZM20.428 51.3932V40.5392H26.638V51.3932H20.428ZM23.638 48.3932V43.5392H23.428V48.3932H23.638Z" fill="#B5E93B"/>
<path fill-rule="evenodd" clip-rule="evenodd" d="M23.698 83.8869H13V78.9189H9.73193L3.24402 67.6809H13V61.2009H23.698V67.6809H35.302V61.2009H46V70.459L41.1137 78.9189H23.698V83.8869ZM38.302 70.6809H20.698V64.2009H16V70.6809H8.44003L11.464 75.9189H16V80.8869H20.698V75.9189H39.382L43 69.6549V64.2009H38.302V70.6809Z" fill="#B5E93B"/>
<path fill-rule="evenodd" clip-rule="evenodd" d="M13 84.358H46V95.596H13V84.358ZM12.358 95.866H0.579956L0.579956 84.088H12.358V95.866ZM16 87.358V92.596H43V87.358H16ZM9.35795 92.866V87.088H3.57996L3.57996 92.866H9.35795Z" fill="#B5E93B"/>
<path fill-rule="evenodd" clip-rule="evenodd" d="M43 116.285V101.219H38.302V117.311H31.336V101.219H19.348L15.73 107.483V116.285L19.348 122.549H39.382L43 116.285ZM34.336 114.311V98.2191H17.6163L12.73 106.679L12.73 117.089L17.6163 125.549H41.1137L46 117.089V98.2191H35.302V114.311H34.336ZM20.428 117.311V106.457H26.638V117.311H20.428ZM23.638 114.311V109.457H23.428V114.311H23.638Z" fill="#B5E93B"/>
<path fill-rule="evenodd" clip-rule="evenodd" d="M12.73 146.396L12.73 136.634L17.6163 128.174H41.3837L46.27 136.634V146.396L44.5202 149.426L46.27 152.456V157.664H0.579956L0.579956 146.426H12.7473L12.73 146.396ZM17.944 149.426H3.57996L3.57996 154.664H43.27V153.26L41.056 149.426L43.27 145.592V137.438L39.652 131.174H19.348L15.73 137.438L15.73 145.592L17.944 149.426ZM20.428 149.426H38.572V136.412H20.428V149.426ZM23.428 146.426H35.572V139.412H23.428V146.426Z" fill="#B5E93B"/>
<path fill-rule="evenodd" clip-rule="evenodd" d="M20.698 160.587H16V166.581L18.2137 170.414L16 171.711V175.653H43V170.415H20.698V160.587ZM23.698 167.415V157.587H13L13 167.385L14.1247 169.332L13 169.991V178.653H46V167.415H23.698Z" fill="#B5E93B"/>
<path fill-rule="evenodd" clip-rule="evenodd" d="M2.19995 192.442L46 176.799V188.466L37.036 191.652V204.156L46 207.342V219.009L2.19995 203.366L2.19995 192.442ZM34.036 206.274V189.534L43 186.348V181.056L5.19995 194.556L5.19995 201.252L43 214.752V209.46L34.036 206.274ZM29.176 204.546V191.262L10.546 197.85V197.958L29.176 204.546ZM19.3917 197.904L26.176 200.303V195.505L19.3917 197.904Z" fill="#B5E93B"/>
<path fill-rule="evenodd" clip-rule="evenodd" d="M43 249.228V234.162H38.302V250.254H31.336V234.162H19.348L15.73 240.426V249.228L19.348 255.492H39.382L43 249.228ZM34.336 247.254V231.162H17.6163L12.73 239.622L12.73 250.033L17.6163 258.492H41.1137L46 250.033V231.162H35.302V247.254H34.336ZM20.428 250.254V239.4H26.638V250.254H20.428ZM23.638 247.254V242.4H23.428V247.254H23.638Z" fill="#B5E93B"/>
<path fill-rule="evenodd" clip-rule="evenodd" d="M19.348 264.13L15.73 270.394L15.73 278.008L17.9439 281.842L15.73 283.138V287.08H43V281.842H20.428V269.368H43V264.13H19.348ZM23.428 272.368H46V261.13H17.6163L12.73 269.59L12.73 278.812L13.8546 280.76L12.73 281.418V290.08H46V278.842H23.428V272.368Z" fill="#B5E93B"/>
<path fill-rule="evenodd" clip-rule="evenodd" d="M13 292.712H46V303.95H13V292.712ZM12.358 304.22H0.579956L0.579956 292.442H12.358V304.22ZM16 295.712V300.95H43V295.712H16ZM9.35795 301.22V295.442H3.57996L3.57996 301.22H9.35795Z" fill="#B5E93B"/>
<path fill-rule="evenodd" clip-rule="evenodd" d="M43 324.639V309.573H38.302V325.665H31.336V309.573H19.348L15.73 315.837V324.639L19.348 330.903H39.382L43 324.639ZM34.336 322.665V306.573H17.6163L12.73 315.033L12.73 325.443L17.6163 333.903H41.1137L46 325.443V306.573H35.302V322.665H34.336ZM20.428 325.665V314.811H26.638V325.665H20.428ZM23.638 322.665V317.811H23.428V322.665H23.638Z" fill="#B5E93B"/>
<path fill-rule="evenodd" clip-rule="evenodd" d="M46 348.2H29.0485L46 354.326V363.941L29.1257 370.01H46V381.14H2.19995L2.19995 368.417L28.0386 359.125L2.19995 349.79L2.19995 337.07H46V348.2ZM36.736 359.078V359.186L5.19995 370.526V378.14H43V373.01H12.22V372.902L43 361.832V356.432L12.22 345.308V345.2H43V340.07H5.19995L5.19995 347.684L36.736 359.078Z" fill="#B5E93B"/>
</svg>
