<svg width="23" height="209" viewBox="0 0 23 209" fill="none" xmlns="http://www.w3.org/2000/svg">
<path d="M9.43834 0.121643L22.5783 0.121643V3.03163L10.0383 3.03163V9.96164H22.5783V12.8716L7.42834 12.8716V10.6816L8.65834 9.96164L7.42834 7.83163L7.42834 3.60164L9.43834 0.121643Z" fill="#4A4A4A"/>
<path d="M19.9683 17.6623H22.5783V26.0323L20.5683 29.5123H9.43834L7.42834 26.0323L7.42834 21.1423L9.43834 17.6623H16.0983V26.6023H19.9683V17.6623ZM10.0383 26.6023H13.4883V20.5723H10.0383V26.6023Z" fill="#4A4A4A"/>
<path d="M10.1884 42.9877H7.57842V40.2277H5.05842L3.37842 37.3177H7.57842L7.57842 33.7177H10.1884V37.3177H19.9684V33.7177H22.5784V36.7477L20.5684 40.2277H10.1884V42.9877Z" fill="#4A4A4A"/>
<path d="M7.57835 46.5828H22.5783V49.4928H7.57835V46.5828ZM3.88834 49.6428H0.678345L0.678345 46.4328H3.88834V49.6428Z" fill="#4A4A4A"/>
<path d="M19.9683 54.2834H22.5783V62.6534L20.5683 66.1334H9.43834L7.42834 62.6534L7.42834 57.7634L9.43834 54.2834H16.0983V63.2234H19.9683V54.2834ZM10.0383 63.2234H13.4883V57.1934H10.0383V63.2234Z" fill="#4A4A4A"/>
<path d="M7.42835 78.9352L7.42835 74.4052L9.43834 70.9252H20.7183L22.7283 74.4052V78.9352L21.4983 81.0652L22.7283 83.1952V83.9752H0.678345L0.678345 81.0652H8.65835L7.42835 78.9352ZM10.0383 81.0652H20.1183V73.8352H10.0383V81.0652Z" fill="#4A4A4A"/>
<path d="M10.1884 87.2653V92.7253H22.5784V95.6353H7.57837V93.4453L8.80837 92.7253L7.57837 90.5953L7.57837 87.2653H10.1884Z" fill="#4A4A4A"/>
<path d="M1.57837 106.137L22.5784 98.6372V101.577L17.5984 103.347V112.647L22.5784 114.417V117.357L1.57837 109.857L1.57837 106.137ZM4.54837 108.027L14.8984 111.687V104.307L4.54837 107.967V108.027Z" fill="#4A4A4A"/>
<path d="M19.9683 128.141H22.5783V136.511L20.5683 139.991H9.43834L7.42834 136.511L7.42834 131.621L9.43834 128.141H16.0983V137.081H19.9683V128.141ZM10.0383 137.081H13.4883V131.051H10.0383V137.081Z" fill="#4A4A4A"/>
<path d="M9.43834 144.79H22.5783V147.7H10.0383V154.63H22.5783V157.54H7.42834V155.35L8.65834 154.63L7.42834 152.5L7.42834 148.27L9.43834 144.79Z" fill="#4A4A4A"/>
<path d="M7.57835 162.335H22.5783V165.245H7.57835V162.335ZM3.88834 165.395H0.678345L0.678345 162.185H3.88834V165.395Z" fill="#4A4A4A"/>
<path d="M19.9683 170.035H22.5783V178.405L20.5683 181.885H9.43834L7.42834 178.405L7.42834 173.515L9.43834 170.035H16.0983V178.975H19.9683V170.035ZM10.0383 178.975H13.4883V172.945H10.0383V178.975Z" fill="#4A4A4A"/>
<path d="M22.5784 189.828H5.47837V189.888L22.5784 196.068V199.068L5.47837 205.218V205.278H22.5784V208.128H1.57837L1.57837 203.898L19.0984 197.598V197.538L1.57837 191.208L1.57837 186.978H22.5784V189.828Z" fill="#4A4A4A"/>
</svg>
