<svg width="212" height="27" viewBox="0 0 212 27" fill="none" xmlns="http://www.w3.org/2000/svg">
<path fill-rule="evenodd" clip-rule="evenodd" d="M199.432 12.744H202.376V22.856L206.089 25H210.281V21.256H206.76V12.744H210.281V8.99997H206.76V3.78397L202.376 6.31197V8.99997H199.432V12.744ZM201.376 7.99997H198.432V13.744H201.376V23.4332L205.82 26H211.281V20.256H207.76V13.744H211.281V7.99997H207.76V2.05298L201.376 5.73426V7.99997Z" fill="#B5E93B"/>
<path fill-rule="evenodd" clip-rule="evenodd" d="M195.899 21.256H187.003V18.632H195.899V10.984L192.187 8.83997H186.331L182.619 10.984V22.856L186.331 25H195.899V21.256ZM188.003 19.632H196.899V10.4067L192.455 7.83997H186.063L181.619 10.4067V23.4332L186.063 26H196.899V20.256H188.003V19.632ZM187.003 12.584H191.515V15.336H187.003V12.584ZM188.003 14.336H190.515V13.584H188.003V14.336Z" fill="#B5E93B"/>
<path fill-rule="evenodd" clip-rule="evenodd" d="M160.97 14.2172V4.00671L165.414 1.43994H174.046L178.49 4.00671V9.83994H172.01V7.27994H167.45V10.6239H174.046L178.49 13.1907V23.5932L174.046 26.1599H165.094L160.65 23.5932V17.7599H167.13V20.3199H172.01V16.7839H165.414L160.97 14.2172ZM173.01 15.7839V21.3199H166.13V18.7599H161.65V23.0159L165.362 25.1599H173.778L177.49 23.0159V13.7679L173.778 11.6239H166.45V6.27994H173.01V8.83994H177.49V4.58394L173.778 2.43994H165.682L161.97 4.58394V13.6399L165.682 15.7839H173.01Z" fill="#B5E93B"/>
<path fill-rule="evenodd" clip-rule="evenodd" d="M146.313 26L141.869 23.4332V0.640015H148.253V20.256H151.453V26H146.313ZM147.253 21.256V1.64001H142.869V22.856L146.581 25H150.453V21.256H147.253Z" fill="#B5E93B"/>
<path fill-rule="evenodd" clip-rule="evenodd" d="M135.844 26L131.4 23.4332V0.640015H137.784V20.256H140.984V26H135.844ZM136.784 21.256V1.64001H132.4V22.856L136.112 25H139.984V21.256H136.784Z" fill="#B5E93B"/>
<path fill-rule="evenodd" clip-rule="evenodd" d="M128.596 8.00002V26H122.212V8.00002H128.596ZM122.052 7.02401V0.640015H128.756V7.02401H122.052ZM127.596 9.00002H123.212V25H127.596V9.00002ZM123.052 6.02401H127.756V1.64001H123.052V6.02401Z" fill="#B5E93B"/>
<path fill-rule="evenodd" clip-rule="evenodd" d="M110.972 0.640015V12.5807L114.504 8.00002H122.105L115.559 16.155L122.987 26H115.385L111.699 20.9811L110.972 21.8938V26H104.588V0.640015H110.972ZM109.972 21.544L111.732 19.336L115.892 25H120.98L114.292 16.136L120.02 9.00002H114.996L110.036 15.432H109.972V1.64001H105.588V25H109.972V21.544Z" fill="#B5E93B"/>
<path fill-rule="evenodd" clip-rule="evenodd" d="M83.9388 14.2172V4.00671L88.3827 1.43994H97.0148L101.459 4.00671V9.83994H94.9788V7.27994H90.4188V10.6239H97.0148L101.459 13.1907V23.5932L97.0148 26.1599H88.0627L83.6188 23.5932V17.7599H90.0988V20.3199H94.9788V16.7839H88.3827L83.9388 14.2172ZM95.9788 15.7839V21.3199H89.0988V18.7599H84.6188V23.0159L88.3308 25.1599H96.7468L100.459 23.0159V13.7679L96.7468 11.6239H89.4188V6.27994H95.9788V8.83994H100.459V4.58394L96.7468 2.43994H88.6508L84.9388 4.58394V13.6399L88.6508 15.7839H95.9788Z" fill="#B5E93B"/>
<path fill-rule="evenodd" clip-rule="evenodd" d="M71.515 10.984L67.803 8.83997H63.931L61.659 10.152L60.891 8.83997H57.275V25H61.659V12.584H67.131V25H71.515V10.984ZM66.131 13.584V26H72.515V10.4067L68.0711 7.83997H63.663L62.0198 8.78885L61.4644 7.83997H56.275V26H62.659V13.584H66.131Z" fill="#B5E93B"/>
<path fill-rule="evenodd" clip-rule="evenodd" d="M53.4715 8.00002V26H47.0875V8.00002H53.4715ZM46.9275 7.02401V0.640015H53.6315V7.02401H46.9275ZM52.4715 9.00002H48.0875V25H52.4715V9.00002ZM47.9275 6.02401H52.6315V1.64001H47.9275V6.02401Z" fill="#B5E93B"/>
<path fill-rule="evenodd" clip-rule="evenodd" d="M43.2738 21.256H34.3778V18.632H43.2738V10.984L39.5618 8.83997H33.7058L29.9938 10.984V22.856L33.7058 25H43.2738V21.256ZM35.3778 19.632H44.2738V10.4067L39.8298 7.83997H33.4377L28.9938 10.4067V23.4332L33.4377 26H44.2738V20.256H35.3778V19.632ZM34.3778 12.584H38.8898V15.336H34.3778V12.584ZM35.3778 14.336H37.8898V13.584H35.3778V14.336Z" fill="#B5E93B"/>
<path fill-rule="evenodd" clip-rule="evenodd" d="M19.568 26V16.0432L16.1628 26H10.4756L7.03997 15.8876V26H0.719971V1.59998H8.38701L13.3334 16.0737L18.2516 1.59998H25.888V26H19.568ZM13.368 19.08H13.304L7.67197 2.59998H1.71997V25H6.03997V10.024H6.10397L11.192 25H15.448L20.504 10.216H20.568V25H24.888V2.59998H18.968L13.368 19.08Z" fill="#B5E93B"/>
</svg>
