<svg width="46" height="348" viewBox="0 0 46 348" fill="none" xmlns="http://www.w3.org/2000/svg">
<path fill-rule="evenodd" clip-rule="evenodd" d="M23.198 22.7013H12.5V17.7333H9.23193L2.74402 6.49533H12.5V0.0153198H23.198V6.49533L34.802 6.49533V0.0153198H45.5V9.27347L40.6137 17.7333L23.198 17.7333V22.7013ZM37.802 9.49533H20.198V3.01532H15.5L15.5 9.49533H7.94003L10.964 14.7333H15.5V19.7013H20.198V14.7333L38.882 14.7333L42.5 8.46933V3.01532H37.802V9.49533Z" fill="#B5E93B"/>
<path fill-rule="evenodd" clip-rule="evenodd" d="M42.5 41.2304V26.1645L37.802 26.1645V42.2564H30.836V26.1645H18.848L15.23 32.4285V41.2304L18.848 47.4944H38.882L42.5 41.2304ZM33.836 39.2564V23.1645H17.1163L12.23 31.6243L12.23 42.0346L17.1163 50.4944H40.6137L45.5 42.0346V23.1645L34.802 23.1645V39.2564H33.836ZM19.928 42.2564V31.4025H26.138V42.2564H19.928ZM23.138 39.2564V34.4025H22.928V39.2564H23.138Z" fill="#B5E93B"/>
<path fill-rule="evenodd" clip-rule="evenodd" d="M24.2518 84.7592H6.31636L1.43005 76.2993L1.43005 62.109L6.31636 53.6491H16.6101V65.0491H12.2901L12.2901 73.3591H17.7381V62.109L22.6244 53.6491H40.8838L45.7701 62.109V76.8393L40.8838 85.2991H30.5901V73.8991H34.9101V65.0491H29.1381V76.2993L24.2518 84.7592ZM26.1381 62.0491H37.9101V76.8991H33.5901V82.2991H39.1521L42.7701 76.0351V62.9131L39.1521 56.6491H24.3561L20.7381 62.9131V76.3591H9.29006L9.29006 62.0491H13.6101V56.6491H8.04806L4.43005 62.9131L4.43005 75.4951L8.04806 81.7592H22.5201L26.1381 75.4951V62.0491Z" fill="#B5E93B"/>
<path fill-rule="evenodd" clip-rule="evenodd" d="M45.5 108.005L40.6137 116.465H0.0799561L0.0799561 105.227H34.802V98.7472H45.5V108.005ZM37.802 108.227H3.07996L3.07996 113.465H38.882L42.5 107.201V101.747H37.802V108.227Z" fill="#B5E93B"/>
<path fill-rule="evenodd" clip-rule="evenodd" d="M45.5 125.144L40.6137 133.604H0.0799561L0.0799561 122.366H34.802V115.886H45.5V125.144ZM37.802 125.366H3.07996L3.07996 130.604H38.882L42.5 124.34V118.886H37.802V125.366Z" fill="#B5E93B"/>
<path fill-rule="evenodd" clip-rule="evenodd" d="M12.5 136.235H45.5V147.473H12.5V136.235ZM11.858 147.743H0.0799561L0.0799561 135.965H11.858V147.743ZM15.5 139.235V144.473H42.5V139.235H15.5ZM8.85795 144.743V138.965H3.07996L3.07996 144.743H8.85795Z" fill="#B5E93B"/>
<path fill-rule="evenodd" clip-rule="evenodd" d="M0.0799561 164.922H20.744L12.5 158.102V143.919L27.7502 156.943L45.5 142.497V156.685L36.1635 164.063L37.1755 164.922H45.5V176.16H0.0799561L0.0799561 164.922ZM36.074 167.922L31.43 163.98L42.5 155.232V148.806L27.704 160.848L15.5 150.426V156.69L28.946 167.814V167.922H3.07996L3.07996 173.16H42.5V167.922H36.074Z" fill="#B5E93B"/>
<path fill-rule="evenodd" clip-rule="evenodd" d="M24.2518 210.425H6.31636L1.43005 201.965L1.43005 187.775L6.31636 179.315H16.6101V190.715H12.2901L12.2901 199.025H17.7381V187.775L22.6244 179.315H40.8838L45.7701 187.775V202.505L40.8838 210.965H30.5901V199.565H34.9101V190.715H29.1381V201.965L24.2518 210.425ZM26.1381 187.715H37.9101V202.565H33.5901V207.965H39.1521L42.7701 201.701V188.579L39.1521 182.315H24.3561L20.7381 188.579V202.025H9.29006L9.29006 187.715H13.6101V182.315H8.04806L4.43005 188.579L4.43005 201.161L8.04806 207.425H22.5201L26.1381 201.161V187.715Z" fill="#B5E93B"/>
<path fill-rule="evenodd" clip-rule="evenodd" d="M18.848 230.63L15.23 236.894L15.23 244.508L17.4439 248.342L15.23 249.638V253.58H42.5V248.342H19.928V235.868H42.5V230.63H18.848ZM22.928 238.868H45.5V227.63H17.1163L12.23 236.09L12.23 245.312L13.3546 247.26L12.23 247.918V256.58H45.5V245.342H22.928V238.868Z" fill="#B5E93B"/>
<path fill-rule="evenodd" clip-rule="evenodd" d="M12.5 259.212H45.5V270.45H12.5V259.212ZM11.858 270.72H0.0799561L0.0799561 258.942H11.858V270.72ZM15.5 262.212V267.45H42.5V262.212H15.5ZM8.85795 267.72V261.942H3.07996L3.07996 267.72H8.85795Z" fill="#B5E93B"/>
<path fill-rule="evenodd" clip-rule="evenodd" d="M42.5 291.139V276.073H37.802V292.165H30.836V276.073H18.848L15.23 282.337V291.139L18.848 297.403H38.882L42.5 291.139ZM33.836 289.165V273.073H17.1163L12.23 281.533L12.23 291.943L17.1163 300.403H40.6137L45.5 291.943V273.073H34.802V289.165H33.836ZM19.928 292.165V281.311H26.138V292.165H19.928ZM23.138 289.165V284.311H22.928V289.165H23.138Z" fill="#B5E93B"/>
<path fill-rule="evenodd" clip-rule="evenodd" d="M45.5 314.7H28.5485L45.5 320.826V330.441L28.6257 336.51H45.5V347.64H1.69995L1.69995 334.917L27.5386 325.625L1.69995 316.29L1.69995 303.57H45.5V314.7ZM36.236 325.578V325.686L4.69995 337.026V344.64H42.5V339.51H11.72V339.402L42.5 328.332V322.932L11.72 311.808V311.7H42.5V306.57H4.69995L4.69995 314.184L36.236 325.578Z" fill="#B5E93B"/>
</svg>
