<svg width="25" height="211" viewBox="0 0 25 211" fill="none" xmlns="http://www.w3.org/2000/svg">
<path fill-rule="evenodd" clip-rule="evenodd" d="M10.36 1.79335L8.35003 5.27335V9.50334L9.58002 11.6333L8.35003 12.3533V14.5434L23.5 14.5434V11.6333H10.96V4.70334L23.5 4.70334V1.79335L10.36 1.79335ZM12.16 5.90335L24.7 5.90335V0.593338L9.66735 0.593338L7.15002 4.95169L7.15002 9.82494L7.94429 11.2004L7.15002 11.6653V15.7433L24.7 15.7433V10.4333H12.16V5.90335Z" fill="#4A4A4A"/>
<path fill-rule="evenodd" clip-rule="evenodd" d="M20.89 19.334V28.274H17.02V19.334H10.36L8.35003 22.814V27.704L10.36 31.184H21.49L23.5 27.704V19.334H20.89ZM18.22 27.074V18.134H9.66735L7.15002 22.4923L7.15002 28.0256L9.66735 32.384H22.1827L24.7 28.0256V18.134H19.69V27.074H18.22ZM10.96 28.274V22.244H14.41V28.274H10.96ZM13.21 27.074V23.444H12.16V27.074H13.21Z" fill="#4A4A4A"/>
<path fill-rule="evenodd" clip-rule="evenodd" d="M11.11 44.6594V41.8994H21.49L23.5 38.4194V35.3894H20.89V38.9894H11.11V35.3894H8.49996V38.9894H4.29996L5.97996 41.8994H8.49996V44.6594H11.11ZM7.29996 43.0994V45.8594H12.31V43.0994H22.1826L24.7 38.741V34.1894H19.69V37.7894H12.31V34.1894H7.29996V37.7894H2.22156L5.28712 43.0994H7.29996Z" fill="#4A4A4A"/>
<path fill-rule="evenodd" clip-rule="evenodd" d="M7.30002 47.0545H24.7V52.3645H7.30002V47.0545ZM6.01002 52.5145H0.400024L0.400024 46.9045H6.01002V52.5145ZM8.50002 48.2545V51.1645H23.5V48.2545H8.50002ZM4.81002 51.3145V48.1045H1.60002L1.60002 51.3145H4.81002Z" fill="#4A4A4A"/>
<path fill-rule="evenodd" clip-rule="evenodd" d="M20.89 55.9551V64.8951H17.02V55.9551H10.36L8.35003 59.4351V64.3251L10.36 67.8051H21.49L23.5 64.3251V55.9551H20.89ZM18.22 63.6951V54.7551H9.66735L7.15002 59.1134L7.15002 64.6467L9.66735 69.0051H22.1827L24.7 64.6467V54.7551H19.69V63.6951H18.22ZM10.96 64.8951V58.8651H14.41V64.8951H10.96ZM13.21 63.6951V60.0651H12.16V63.6951H13.21Z" fill="#4A4A4A"/>
<path fill-rule="evenodd" clip-rule="evenodd" d="M7.15002 80.9285L7.15002 75.7552L9.66735 71.3969H22.3327L24.85 75.7552V80.9285L23.8057 82.7369L24.85 84.5453V86.8469H0.400024L0.400024 81.5369H7.50136L7.15002 80.9285ZM9.58002 82.7369H1.60002L1.60002 85.6469H23.65V84.8669L22.42 82.7369L23.65 80.6069V76.0769L21.64 72.5969H10.36L8.35003 76.0769V80.6069L9.58002 82.7369ZM21.04 75.5069H10.96V82.7369H21.04V75.5069ZM19.84 81.5369V76.7069H12.16V81.5369H19.84Z" fill="#4A4A4A"/>
<path fill-rule="evenodd" clip-rule="evenodd" d="M11.11 88.937H8.50005V92.267L9.72988 94.3967L8.50005 95.117V97.307H23.5V94.397H11.11V88.937ZM12.31 93.197V87.737H7.30005L7.30005 92.5886L8.09431 93.964L7.30005 94.429V98.507H24.7001V93.197H12.31Z" fill="#4A4A4A"/>
<path fill-rule="evenodd" clip-rule="evenodd" d="M1.30005 106.963L24.7001 98.6061V104.096L19.7201 105.866V113.472L24.7001 115.242V120.732L1.30005 112.375L1.30005 106.963ZM18.5201 114.319V105.019L23.5 103.249V100.309L2.50005 107.809V111.529L23.5 119.029V116.089L18.5201 114.319ZM15.8201 113.359L15.8201 105.979L5.47005 109.639V109.699L15.8201 113.359ZM8.98458 109.669L14.62 111.662V107.676L8.98458 109.669Z" fill="#4A4A4A"/>
<path fill-rule="evenodd" clip-rule="evenodd" d="M20.89 129.812V138.752H17.02V129.812H10.36L8.35003 133.292V138.182L10.36 141.662H21.49L23.5 138.182V129.812H20.89ZM18.22 137.552V128.612H9.66735L7.15002 132.971L7.15002 138.504L9.66735 142.862H22.1827L24.7 138.504V128.612H19.69V137.552H18.22ZM10.96 138.752V132.722H14.41V138.752H10.96ZM13.21 137.552V133.922H12.16V137.552H13.21Z" fill="#4A4A4A"/>
<path fill-rule="evenodd" clip-rule="evenodd" d="M10.36 146.461L8.35003 149.941V154.171L9.58002 156.301L8.35003 157.021V159.211H23.5V156.301H10.96V149.371H23.5V146.461H10.36ZM12.16 150.571H24.7V145.261H9.66735L7.15002 149.62L7.15002 154.493L7.94429 155.868L7.15002 156.333V160.411H24.7V155.101H12.16V150.571Z" fill="#4A4A4A"/>
<path fill-rule="evenodd" clip-rule="evenodd" d="M7.30002 162.806H24.7V168.116H7.30002V162.806ZM6.01002 168.266H0.400024L0.400024 162.656H6.01002V168.266ZM8.50002 164.006V166.916H23.5V164.006H8.50002ZM4.81002 167.066V163.856H1.60002L1.60002 167.066H4.81002Z" fill="#4A4A4A"/>
<path fill-rule="evenodd" clip-rule="evenodd" d="M20.89 171.707V180.647H17.02V171.707H10.36L8.35003 175.187V180.077L10.36 183.557H21.49L23.5 180.077V171.707H20.89ZM18.22 179.447V170.507H9.66735L7.15002 174.865L7.15002 180.399L9.66735 184.757H22.1827L24.7 180.399V170.507H19.69V179.447H18.22ZM10.96 180.647V174.617H14.41V180.647H10.96ZM13.21 179.447V175.817H12.16V179.447H13.21Z" fill="#4A4A4A"/>
<path fill-rule="evenodd" clip-rule="evenodd" d="M24.7001 192.7H13.085L24.7001 196.898V201.584L13.1156 205.75H24.7001V211H1.30005L1.30005 204.726L16.5644 199.237L1.30005 193.722L1.30005 187.45H24.7001V192.7ZM20.0201 199.21V199.27L2.50005 205.57V209.8H23.5V206.95H6.40005V206.89L23.5 200.74V197.74L6.40005 191.56V191.5H23.5V188.65H2.50005L2.50005 192.88L20.0201 199.21Z" fill="#4A4A4A"/>
</svg>
