<svg width="148" height="27" viewBox="0 0 148 27" fill="none" xmlns="http://www.w3.org/2000/svg">
<path fill-rule="evenodd" clip-rule="evenodd" d="M137.253 26H130.869V0.640015H137.253V8.41979L138.257 7.84002H142.985L147.429 10.4068V26H141.045V13.584H137.253V26ZM142.045 12.584V25H146.429V10.984L142.717 8.84002H138.525L136.253 10.152V1.64001H131.869V25H136.253V12.584H142.045Z" fill="#B5E93B"/>
<path fill-rule="evenodd" clip-rule="evenodd" d="M119.784 12.744H127.72V9H119.112L115.4 11.144V22.856L119.112 25H127.72V21.256H119.784V12.744ZM120.784 20.256H128.72V26H118.844L114.4 23.4332V10.5668L118.844 8H128.72V13.744H120.784V20.256Z" fill="#B5E93B"/>
<path fill-rule="evenodd" clip-rule="evenodd" d="M111.596 8.00002V26H105.212V8.00002H111.596ZM105.052 7.02401V0.640015H111.756V7.02401H105.052ZM110.596 9.00002H106.212V25H110.596V9.00002ZM106.052 6.02401H110.756V1.64001H106.052V6.02401Z" fill="#B5E93B"/>
<path fill-rule="evenodd" clip-rule="evenodd" d="M89.3968 25.16L93.1088 23.016V10.984L89.3968 8.84003H82.5808L78.8688 10.984V23.016L82.5808 25.16H89.3968ZM83.2528 12.584H88.7248V21.416H83.2528V12.584ZM84.2528 20.416H87.7248V13.584H84.2528V20.416ZM94.1088 23.5933L89.6648 26.16H82.3127L77.8688 23.5933V10.4068L82.3127 7.84003H89.6648L94.1088 10.4068V23.5933Z" fill="#B5E93B"/>
<path fill-rule="evenodd" clip-rule="evenodd" d="M74.072 22.856V17.128L70.36 14.984H65.784V12.744H73.752V9H65.112L61.4 11.144V16.648L65.112 18.792H69.688V21.256H61.4V25H70.36L74.072 22.856ZM68.688 20.256V19.792H64.844L60.4 17.2252V10.5668L64.844 8H74.752V13.744H66.784V13.984H70.6281L75.072 16.5508V23.4332L70.6281 26H60.4V20.256H68.688Z" fill="#B5E93B"/>
<path fill-rule="evenodd" clip-rule="evenodd" d="M56.5863 21.256H47.6903V18.632H56.5863V10.984L52.8743 8.84003H47.0183L43.3063 10.984V22.856L47.0183 25H56.5863V21.256ZM48.6903 19.632H57.5863V10.4068L53.1423 7.84003H46.7502L42.3063 10.4068V23.4333L46.7502 26H57.5863V20.256H48.6903V19.632ZM47.6903 12.584H52.2023V15.336H47.6903V12.584ZM48.6903 14.336H51.2023V13.584H48.6903V14.336Z" fill="#B5E93B"/>
<path fill-rule="evenodd" clip-rule="evenodd" d="M39.5027 8.00002V26H33.1187V8.00002H39.5027ZM32.9587 7.02401V0.640015H39.6627V7.02401H32.9587ZM38.5027 9.00002H34.1187V25H38.5027V9.00002ZM33.9587 6.02401H38.6627V1.64001H33.9587V6.02401Z" fill="#B5E93B"/>
<path fill-rule="evenodd" clip-rule="evenodd" d="M32.2061 1.59998L26.0016 26H19.6555L16.36 13.6287L13.0645 26H6.71849L0.513916 1.59998H6.93597L9.99811 14.0561L13.3197 1.59998H19.3995L22.722 14.0074L25.7849 1.59998H32.2061ZM22.792 17.896H22.728L18.632 2.59998H14.088L9.99203 17.96H9.92803L6.15203 2.59998H1.80003L7.49603 25H12.296L16.328 9.86398H16.392L20.424 25H25.224L30.92 2.59998H26.568L22.792 17.896Z" fill="#B5E93B"/>
</svg>
