<svg width="55" height="277" viewBox="0 0 55 277" fill="none" xmlns="http://www.w3.org/2000/svg">
<path d="M1.92993 26.3127H1.42993V26.8127L1.42993 33.3569V33.8569H1.92993H42.7471H43.2471V33.3569V26.8127V26.3127H42.7471L36.304 26.3127L31.996 21.9005L43.0922 11.3203L43.2471 11.1725V10.9584V2.93002V1.73824L42.3968 2.57327L27.4352 17.2656L15.149 4.60575L14.2901 3.72083V4.95397V12.7799V12.9873L14.4369 13.1338L27.6393 26.3127H1.92993Z" stroke="#B5E93B"/>
<path d="M20.1547 40.7558V40.2558H19.6547H14.7902H14.2902V40.7558L14.2902 48.2444V48.3579L14.3392 48.4603L16.4494 52.8696L14.5017 54.2453L14.2902 54.3947V54.6537V59.5786V60.0786H14.7902H42.7471H43.2471V59.5786V53.0345V52.5345H42.7471H20.1547V40.7558Z" stroke="#B5E93B"/>
<path d="M39.7315 70.1546L39.5955 69.8705H39.2805H18.2569H17.9419L17.8059 70.1546L14.0596 77.9806L14.0106 78.083V78.1965L14.0106 91.2173V91.3308L14.0596 91.4332L17.8059 99.2592L17.9419 99.5433H18.2569H39.2805H39.5955L39.7315 99.2592L43.4777 91.4332L43.5267 91.3308V91.2173V78.1965V78.083L43.4777 77.9806L39.7315 70.1546ZM37.6622 77.4147V91.9991H19.8751V77.4147H37.6622Z" stroke="#B5E93B"/>
<path d="M3.75559 105.991L3.10742 105.79V106.468L3.10742 113.012V113.384L3.46302 113.491L34.115 122.737L3.45659 132.438L3.10742 132.548V132.915L3.10742 140.471V140.836L3.45567 140.947L34.115 150.713L3.46395 159.894L3.10742 160.001V160.373L3.10742 166.917V167.596L3.75559 167.395L42.8954 155.251L43.2472 155.142V154.773V146.745V146.379L42.8989 146.269L12.8159 136.693L42.8989 127.117L43.2472 127.006V126.64V118.612V118.244L42.8954 118.134L3.75559 105.991Z" stroke="#B5E93B"/>
<path d="M53.717 213.403L54.4299 213.738V212.95V206.541V206.226L54.146 206.09L15.0062 187.335L14.2902 186.992V187.786V194.33V194.645L14.5746 194.781L33.6799 203.911L14.5733 213.107L14.2902 213.243V213.557V220.102V220.902L15.0095 220.551L41.4651 207.635L53.717 213.403Z" stroke="#B5E93B"/>
<path d="M42.7472 234.416H43.2472V233.916V227.507V227.007H42.7472H3.60742H3.10742L3.10742 227.507L3.10742 237.02V237.347L3.40761 237.478L35.1626 251.321L3.40841 265.099L3.10742 265.229V265.557L3.10742 275.07V275.57H3.60742H42.7472H43.2472V275.07V268.661V268.161H42.7472H12.9735L42.9462 255.154L43.2472 255.024V254.695V247.949V247.621L42.9471 247.491L12.9643 234.416H42.7472Z" stroke="#B5E93B"/>
</svg>
