<svg width="53" height="273" viewBox="0 0 53 273" fill="none" xmlns="http://www.w3.org/2000/svg">
<path fill-rule="evenodd" clip-rule="evenodd" d="M0.859985 27.4354H19.9729L12.3477 19.2678V2.28361L26.4532 17.8796L42.8706 0.580005V17.5713L34.235 26.4067L35.1711 27.4354H42.8706V40.8933H0.859985L0.859985 27.4354ZM34.1522 31.028L29.8568 26.3074L40.0958 15.8313V8.13598L26.4105 22.5567L15.1225 10.076V17.5773L27.5592 30.8987V31.028H3.6348L3.6348 37.3007H40.0958V31.028H34.1522Z" fill="#B5E93B"/>
<path fill-rule="evenodd" clip-rule="evenodd" d="M19.4679 44.3929H15.1226L15.1226 51.5709L17.1702 56.1617L15.1226 57.7142V62.4349H40.0959V56.1622H19.4679V44.3929ZM22.2428 52.5696V40.8003H12.3478L12.3478 52.5337L13.388 54.866L12.3478 55.6544V66.0275H42.8707V52.5696H22.2428Z" fill="#B5E93B"/>
<path fill-rule="evenodd" clip-rule="evenodd" d="M36.9992 72.779H18.2193L14.8728 80.2804L14.8728 92.7611L18.2193 100.262H36.9992L40.3456 92.7611V80.2804L36.9992 72.779ZM19.2182 93.9897V79.0517H36.0003V93.9897H19.2182ZM33.2254 90.3971V82.6443H21.993V90.3971H33.2254ZM38.6009 69.1864L43.1204 79.3174V93.724L38.6009 103.855H16.6175L12.098 93.724L12.098 79.3174L16.6175 69.1864H38.6009Z" fill="#B5E93B"/>
<path fill-rule="evenodd" clip-rule="evenodd" d="M2.3584 102.746L42.8707 116.234V129.482L22.7644 136.35L42.8707 143.218V156.466L2.3584 169.954L2.3584 156.238L22.7136 149.696L2.3584 142.739L2.3584 129.957L22.7137 123.046L2.3584 116.457L2.3584 102.746ZM33.7027 122.899V123.029L5.13321 132.729V139.971L33.7027 149.736V149.865L5.13321 159.048L5.13321 165.321L40.0959 153.681V145.985L12.0758 136.415V136.285L40.0959 126.715V119.019L5.13321 107.379V113.652L33.7027 122.899Z" fill="#B5E93B"/>
<path fill-rule="evenodd" clip-rule="evenodd" d="M50.0852 209.444V203.301L15.1226 185.324V191.596L32.9036 200.714V200.844L15.1226 210.026V216.299L38.9471 203.818L50.0852 209.444ZM38.9658 207.684L52.86 214.702V200.862L12.3478 180.031V194.038L25.5169 200.791L12.3478 207.592V221.628L38.9658 207.684Z" fill="#B5E93B"/>
<path fill-rule="evenodd" clip-rule="evenodd" d="M42.8707 233.133H27.1917L42.8707 240.47V251.984L27.263 259.251H42.8707V272.58H2.3584L2.3584 257.343L26.2575 246.217L2.3584 235.037L2.3584 219.805H42.8707V233.133ZM34.302 246.16V246.289L5.13321 259.869L5.13321 268.987H40.0959V262.844H11.6263V262.715L40.0959 249.458V242.991L11.6263 229.67V229.541H40.0959V223.397H5.13321L5.13321 232.515L34.302 246.16Z" fill="#B5E93B"/>
</svg>
