<svg width="120" height="31" viewBox="0 0 120 31" fill="none" xmlns="http://www.w3.org/2000/svg">
<path fill-rule="evenodd" clip-rule="evenodd" d="M109.15 0V11.6549L112.257 7.18388H118.944L113.185 15.1438L119.72 24.7532H113.033L109.79 19.8543L109.15 20.7452V24.7532H103.533V0H109.15ZM108.27 20.4038L109.818 18.2486L113.478 23.7771H117.954L112.07 15.1252L117.11 8.15995H112.69L108.326 14.438H108.27V0.976071H104.413V23.7771H108.27V20.4038Z" fill="#B5E93B"/>
<path fill-rule="evenodd" clip-rule="evenodd" d="M101.593 11.8143V8.15994H98.7495L96.7509 9.44045L96.0751 8.15994H92.894V23.7771H96.7508V11.8143H101.593ZM97.6305 12.7904H102.473V7.18387H98.5138L97.0682 8.11005L96.5795 7.18387H92.0142V24.7531H97.6305V12.7904Z" fill="#B5E93B"/>
<path fill-rule="evenodd" clip-rule="evenodd" d="M85.4133 23.9332L88.6789 21.8405V10.0964L85.4133 8.00375H79.417L76.1513 10.0964V21.8405L79.417 23.9332H85.4133ZM80.0081 11.6582H84.8221V20.2788H80.0081V11.6582ZM80.8879 19.3028H83.9423V12.6342H80.8879V19.3028ZM89.5586 22.404L85.6491 24.9093H79.1811L75.2716 22.404V9.53303L79.1811 7.02768H85.6491L89.5586 9.53303V22.404Z" fill="#B5E93B"/>
<path fill-rule="evenodd" clip-rule="evenodd" d="M74.4688 0.937012L69.0103 24.7531H63.4275L60.5283 12.6779L57.6291 24.7531H52.0462L46.5878 0.937012H52.2375L54.9314 13.0951L57.8536 0.937012H63.2022L66.1251 13.0475L68.8197 0.937012H74.4688ZM66.1868 16.8431H66.1305L62.527 1.91308H58.5295L54.9261 16.9055H54.8698L51.5479 1.91308H47.7192L52.7302 23.7771H56.953L60.5001 9.00326H60.5564L64.1035 23.7771H68.3263L73.3373 1.91308H69.5087L66.1868 16.8431Z" fill="#B5E93B"/>
<path fill-rule="evenodd" clip-rule="evenodd" d="M27.5712 30.0239H31.3717L39.2824 8.15994H35.4256L32.16 17.3428H32.1037L28.641 8.15994H24.7842L30.1612 22.6839L27.5712 30.0239ZM29.2134 22.6926L26.2821 31H31.9666L40.5835 7.18387H34.827L32.1088 14.8274L29.2266 7.18387H23.4718L29.2134 22.6926Z" fill="#B5E93B"/>
<path fill-rule="evenodd" clip-rule="evenodd" d="M17.3014 24.7531V15.0346L14.3057 24.7531H9.30239L6.27995 14.8828V24.7531H0.719971V0.937012H7.46499L11.8165 15.0644L16.1433 0.937012H22.8613V24.7531H17.3014ZM11.847 17.9987H11.7907L6.83594 1.91308H1.59971V23.7771H5.4002V9.15943H5.45651L9.93264 23.7771H13.6768L18.1248 9.34684H18.1811V23.7771H21.9816V1.91308H16.7735L11.847 17.9987Z" fill="#B5E93B"/>
</svg>
