<svg width="46" height="283" viewBox="0 0 46 283" fill="none" xmlns="http://www.w3.org/2000/svg">
<path fill-rule="evenodd" clip-rule="evenodd" d="M18.848 3.314L15.23 9.57797L15.23 17.192L17.444 21.026L17.442 21.0271L15.23 22.322V26.264H42.5V21.026H19.928V8.55197L42.5 8.55197V3.314L18.848 3.314ZM22.928 11.552L45.5 11.552V0.313995L17.1163 0.313995L12.23 8.77386L12.23 17.996L13.3546 19.9435L12.23 20.6019V29.264L45.5 29.264V18.026H22.928V11.552Z" fill="#B5E93B"/>
<path fill-rule="evenodd" clip-rule="evenodd" d="M42.5 49.9531V34.8871H37.802V50.9791H30.836V34.8871H18.848L15.23 41.1511V49.9531L18.848 56.2171H38.882L42.5 49.9531ZM33.836 47.9791V31.8871H17.1163L12.23 40.347L12.23 50.7572L17.1163 59.2171H40.6137L45.5 50.7572V31.8871L34.802 31.8871V47.9791H33.836ZM19.928 50.9791V40.1251H26.138V50.9791H19.928ZM23.138 47.9791V43.1251H22.928V47.9791H23.138Z" fill="#B5E93B"/>
<path fill-rule="evenodd" clip-rule="evenodd" d="M38.936 83.5314H42.5V63.2274H37.802V76.8354H37.694L19.064 63.2274H15.5L15.5 82.9914H20.198V69.9234H20.306L38.936 83.5314ZM23.198 75.7509L37.957 86.5314H45.5V60.2274H34.802V71.0079L20.043 60.2274H12.5L12.5 85.9914H23.198V75.7509Z" fill="#B5E93B"/>
<path fill-rule="evenodd" clip-rule="evenodd" d="M18.848 90.0093L15.23 96.2733L15.23 103.887L17.4436 107.721L15.23 109.017V112.959H42.5V107.721H19.928V95.2473H42.5V90.0093H18.848ZM22.928 98.2473H45.5V87.0093H17.1163L12.23 95.4692L12.23 104.691L13.3546 106.639L12.23 107.297V115.959H45.5V104.721H22.928V98.2473Z" fill="#B5E93B"/>
<path fill-rule="evenodd" clip-rule="evenodd" d="M42.5 136.648V121.582H37.802V137.674H30.836V121.582H18.848L15.23 127.846V136.648L18.848 142.912H38.882L42.5 136.648ZM33.836 134.674V118.582H17.1163L12.23 127.042L12.23 137.453L17.1163 145.912H40.6137L45.5 137.453V118.582H34.802V134.674H33.836ZM19.928 137.674V126.82H26.138V137.674H19.928ZM23.138 134.674V129.82H22.928V134.674H23.138Z" fill="#B5E93B"/>
<path fill-rule="evenodd" clip-rule="evenodd" d="M20.198 148.835H15.5V154.829L17.7139 158.663L15.5 159.959V163.901H42.5V158.663H20.198V148.835ZM23.198 155.663V145.835H12.5L12.5 155.633L13.6247 157.58L12.5 158.239V166.901H45.5V155.663H23.198Z" fill="#B5E93B"/>
<path fill-rule="evenodd" clip-rule="evenodd" d="M42.5 187.59V172.524H37.802V188.616H30.836V172.524H18.848L15.23 178.788V187.59L18.848 193.854H38.882L42.5 187.59ZM33.836 185.616V169.524H17.1163L12.23 177.984L12.23 188.394L17.1163 196.854H40.6137L45.5 188.394V169.524H34.802V185.616H33.836ZM19.928 188.616V177.762H26.138V188.616H19.928ZM23.138 185.616V180.762H22.928V185.616H23.138Z" fill="#B5E93B"/>
<path fill-rule="evenodd" clip-rule="evenodd" d="M23.198 220.002H12.5V215.034H4.96626L0.0799561 206.574L0.0799561 197.316H10.778V203.796H12.5V197.316H23.198V203.796H45.5V215.034H23.198V220.002ZM20.198 206.796V200.316H15.5L15.5 206.796H7.77796V200.316H3.07996L3.07996 205.77L6.69796 212.034H15.5V217.002H20.198V212.034H42.5V206.796H20.198Z" fill="#B5E93B"/>
<path fill-rule="evenodd" clip-rule="evenodd" d="M42.5 238.531V223.465H37.802V239.557H30.836V223.465H18.848L15.23 229.729V238.531L18.848 244.795H38.882L42.5 238.531ZM33.836 236.557V220.465H17.1163L12.23 228.925L12.23 239.335L17.1163 247.795H40.6137L45.5 239.335V220.465H34.802V236.557H33.836ZM19.928 239.557V228.703H26.138V239.557H19.928ZM23.138 236.557V231.703H22.928V236.557H23.138Z" fill="#B5E93B"/>
<path fill-rule="evenodd" clip-rule="evenodd" d="M27.434 260.254L42.5 251.56V257.554L27.434 266.086V274.24H42.5V279.64H4.69995L4.69995 260.254L8.31795 253.99H23.816L27.434 260.254ZM30.434 271.24H45.5V282.64H1.69995L1.69995 259.45L6.58626 250.99H25.5476L28.5319 256.157L45.5 246.365V259.303L30.434 267.835V271.24ZM22.574 274.24H9.55995L9.55995 259.39H22.574V274.24ZM19.574 262.39H12.56L12.56 271.24H19.574V262.39Z" fill="#B5E93B"/>
</svg>
