<svg width="47" height="267" viewBox="0 0 47 267" fill="none" xmlns="http://www.w3.org/2000/svg">
<path fill-rule="evenodd" clip-rule="evenodd" d="M45.7413 18.2617V29.4997L0.321289 29.4997L0.321289 18.2617H12.4886L12.4713 18.2317L12.4713 8.46957L17.3576 0.00970459L45.7413 0.00970459V11.2477L23.1693 11.2477V18.2617L45.7413 18.2617ZM20.1693 8.24771L42.7413 8.24771V3.0097L19.0893 3.0097L15.4713 9.2737L15.4713 17.4277L17.6853 21.2617H3.32129L3.32129 26.4997L42.7413 26.4997V21.2617H20.1693V8.24771Z" fill="#B5E93B"/>
<path fill-rule="evenodd" clip-rule="evenodd" d="M20.4393 49.0527V34.0407H15.7413L15.7413 48.0267L19.3593 54.2907H39.1233L42.7413 48.0267V34.0407H38.0433V49.0527H20.4393ZM35.0433 46.0527V31.0407L45.7413 31.0407V48.8309L40.855 57.2907H17.6276L12.7413 48.8309L12.7413 31.0407H23.4393V46.0527H35.0433Z" fill="#B5E93B"/>
<path fill-rule="evenodd" clip-rule="evenodd" d="M12.7413 59.9219H45.7413V71.1599H12.7413V59.9219ZM12.0993 71.4299H0.321289L0.321289 59.6519H12.0993V71.4299ZM15.7413 62.9219V68.1599H42.7413V62.9219H15.7413ZM9.09929 68.4299V62.6519H3.32129L3.32129 68.4299H9.09929Z" fill="#B5E93B"/>
<path fill-rule="evenodd" clip-rule="evenodd" d="M19.0893 90.8276L15.4713 97.0916V102.546L18.3873 107.622L15.4713 112.644V118.098L17.6849 121.931L15.4713 123.228V127.17H42.7413V121.932H20.1693V111.618H42.7413V106.38H20.1693V96.0656H42.7413V90.8276H19.0893ZM23.1693 99.0656H45.7413V87.8276H17.3576L12.4713 96.2875V103.346L14.9229 107.614L12.4713 111.836L12.4713 118.902L13.596 120.849L12.4713 121.508V130.17H45.7413V118.932H23.1693V114.618H45.7413V103.38H23.1693V99.0656Z" fill="#B5E93B"/>
<path fill-rule="evenodd" clip-rule="evenodd" d="M39.3933 158.758L43.0113 152.494V144.88L40.7973 141.046L43.0113 139.75V135.808H15.7413V141.046H38.3133V153.52H15.7413V158.758H39.3933ZM35.3133 150.52H12.7413V161.758H41.125L46.0113 153.298V144.076L44.8867 142.128L46.0113 141.47V132.808H12.7413V144.046H35.3133V150.52Z" fill="#B5E93B"/>
<path fill-rule="evenodd" clip-rule="evenodd" d="M20.4393 164.68H15.7413V170.674L17.9553 174.508L15.7413 175.804V179.746H42.7413V174.508H20.4393V164.68ZM23.4393 171.508V161.68H12.7413L12.7413 171.478L13.866 173.425L12.7413 174.084V182.746H45.7413V171.508H23.4393Z" fill="#B5E93B"/>
<path fill-rule="evenodd" clip-rule="evenodd" d="M31.6713 204.486V193.632H38.3133V204.486H31.6713ZM35.3133 201.486V196.632H34.6713V201.486H35.3133ZM40.7973 193.632L43.0113 197.466V203.46L39.3933 209.724H30.5913L26.9733 203.46V193.632H20.4393V207.024H15.7413V194.658L19.3593 188.394H43.0113V189.798L40.7973 193.632ZM23.4393 196.632V210.024H12.7413L12.7413 193.854L17.6276 185.394H46.0113V190.602L44.2616 193.632L46.0113 196.662V204.264L41.125 212.724H28.8596L23.9733 204.264V196.632H23.4393Z" fill="#B5E93B"/>
<path fill-rule="evenodd" clip-rule="evenodd" d="M1.94128 210.718L45.7413 221.981V233.044L24.0033 238.779L45.7413 244.514V255.577L1.94128 266.84L1.94128 255.387L23.9484 249.924L1.94128 244.114L1.94128 233.441L23.9485 227.669L1.94128 222.168L1.94128 210.718ZM35.8293 227.547V227.655L4.94128 235.755V241.803L35.8293 249.957V250.065L4.94128 257.733V262.971L42.7413 253.251V246.825L12.4473 238.833V238.725L42.7413 230.733V224.307L4.94128 214.587L4.94128 219.825L35.8293 227.547Z" fill="#B5E93B"/>
</svg>
