<svg width="119" height="31" viewBox="0 0 119 31" fill="none" xmlns="http://www.w3.org/2000/svg">
<mask id="path-1-outside-1_3129_3505" maskUnits="userSpaceOnUse" x="-1.5" y="-1" width="121" height="33" fill="black">
<rect fill="white" x="-1.5" y="-1" width="121" height="33"/>
<path d="M29.42 1.6L23.724 24H18.924L14.892 8.864H14.828L10.796 24H5.996L0.3 1.6H4.652L8.428 16.96H8.492L12.588 1.6H17.132L21.228 16.896H21.292L25.068 1.6H29.42ZM37.0028 24H32.6188V0.639999H37.0028V9.152L39.2748 7.84H43.4668L47.1788 9.984V24H42.7948V11.584H37.0028V24ZM53.2418 30.4L56.1858 22.88L50.0738 8H54.4578L58.3938 17.408H58.4578L62.1698 8H66.5538L57.5618 30.4H53.2418ZM100.24 9.984V24H95.8558V11.584H91.1838V24H86.7998V11.584H82.1278V24H77.7438V7.84H81.3598L82.1278 9.152L84.3998 7.84H87.4718L90.4478 9.568L93.4558 7.84H96.5278L100.24 9.984ZM118.305 20.256V24H108.737L105.025 21.856V9.984L108.737 7.84H114.593L118.305 9.984V17.632H109.409V20.256H118.305ZM109.409 11.584V14.336H113.921V11.584H109.409Z"/>
</mask>
<path d="M29.42 1.6L30.3892 1.84644L30.7061 0.599998H29.42V1.6ZM23.724 24V25H24.5015L24.6932 24.2464L23.724 24ZM18.924 24L17.9577 24.2574L18.1555 25H18.924V24ZM14.892 8.864L15.8583 8.60659L15.6605 7.864H14.892V8.864ZM14.828 8.864V7.864H14.0595L13.8617 8.60659L14.828 8.864ZM10.796 24V25H11.5645L11.7623 24.2574L10.796 24ZM5.996 24L5.02684 24.2464L5.21846 25H5.996V24ZM0.3 1.6V0.599998H-0.98611L-0.669157 1.84644L0.3 1.6ZM4.652 1.6L5.62309 1.36127L5.43594 0.599998H4.652V1.6ZM8.428 16.96L7.45691 17.1987L7.64406 17.96H8.428V16.96ZM8.492 16.96V17.96H9.26028L9.45824 17.2177L8.492 16.96ZM12.588 1.6V0.599998H11.8197L11.6218 1.34234L12.588 1.6ZM17.132 1.6L18.098 1.34133L17.8995 0.599998H17.132V1.6ZM21.228 16.896L20.262 17.1547L20.4606 17.896H21.228V16.896ZM21.292 16.896V17.896H22.0752L22.2629 17.1357L21.292 16.896ZM25.068 1.6V0.599998H24.2848L24.0971 1.36033L25.068 1.6ZM28.4508 1.35356L22.7548 23.7536L24.6932 24.2464L30.3892 1.84644L28.4508 1.35356ZM23.724 23H18.924V25H23.724V23ZM19.8903 23.7426L15.8583 8.60659L13.9257 9.12141L17.9577 24.2574L19.8903 23.7426ZM14.892 7.864H14.828V9.864H14.892V7.864ZM13.8617 8.60659L9.8297 23.7426L11.7623 24.2574L15.7943 9.12141L13.8617 8.60659ZM10.796 23H5.996V25H10.796V23ZM6.96516 23.7536L1.26916 1.35356L-0.669157 1.84644L5.02684 24.2464L6.96516 23.7536ZM0.3 2.6H4.652V0.599998H0.3V2.6ZM3.68091 1.83872L7.45691 17.1987L9.39909 16.7213L5.62309 1.36127L3.68091 1.83872ZM8.428 17.96H8.492V15.96H8.428V17.96ZM9.45824 17.2177L13.5542 1.85766L11.6218 1.34234L7.52577 16.7023L9.45824 17.2177ZM12.588 2.6H17.132V0.599998H12.588V2.6ZM16.166 1.85867L20.262 17.1547L22.194 16.6373L18.098 1.34133L16.166 1.85867ZM21.228 17.896H21.292V15.896H21.228V17.896ZM22.2629 17.1357L26.0389 1.83967L24.0971 1.36033L20.3211 16.6563L22.2629 17.1357ZM25.068 2.6H29.42V0.599998H25.068V2.6ZM37.0028 24V25H38.0028V24H37.0028ZM32.6188 24H31.6188V25H32.6188V24ZM32.6188 0.639999V-0.360001H31.6188V0.639999H32.6188ZM37.0028 0.639999H38.0028V-0.360001H37.0028V0.639999ZM37.0028 9.152H36.0028V10.8842L37.5028 10.018L37.0028 9.152ZM39.2747 7.84V6.84H39.0068L38.7747 6.97402L39.2747 7.84ZM43.4668 7.84L43.9669 6.97406L43.7348 6.84H43.4668V7.84ZM47.1787 9.984H48.1787V9.40677L47.6789 9.11806L47.1787 9.984ZM47.1787 24V25H48.1787V24H47.1787ZM42.7948 24H41.7948V25H42.7948V24ZM42.7948 11.584H43.7948V10.584H42.7948V11.584ZM37.0028 11.584V10.584H36.0028V11.584H37.0028ZM37.0028 23H32.6188V25H37.0028V23ZM33.6188 24V0.639999H31.6188V24H33.6188ZM32.6188 1.64H37.0028V-0.360001H32.6188V1.64ZM36.0028 0.639999V9.152H38.0028V0.639999H36.0028ZM37.5028 10.018L39.7748 8.70598L38.7747 6.97402L36.5027 8.28602L37.5028 10.018ZM39.2747 8.84H43.4668V6.84H39.2747V8.84ZM42.9666 8.70594L46.6786 10.8499L47.6789 9.11806L43.9669 6.97406L42.9666 8.70594ZM46.1787 9.984V24H48.1787V9.984H46.1787ZM47.1787 23H42.7948V25H47.1787V23ZM43.7948 24V11.584H41.7948V24H43.7948ZM42.7948 10.584H37.0028V12.584H42.7948V10.584ZM36.0028 11.584V24H38.0028V11.584H36.0028ZM53.2417 30.4L52.3106 30.0354L51.7764 31.4H53.2417V30.4ZM56.1857 22.88L57.1169 23.2445L57.2632 22.8711L57.1108 22.5001L56.1857 22.88ZM50.0737 8V7H48.5819L49.1487 8.37995L50.0737 8ZM54.4577 8L55.3803 7.61405L55.1234 7H54.4577V8ZM58.3937 17.408L57.4712 17.794L57.7281 18.408H58.3937V17.408ZM58.4577 17.408V18.408H59.1382L59.388 17.775L58.4577 17.408ZM62.1698 8V7H61.4893L61.2395 7.63298L62.1698 8ZM66.5537 8L67.4818 8.37253L68.0327 7H66.5537V8ZM57.5618 30.4V31.4H58.2379L58.4898 30.7725L57.5618 30.4ZM54.1729 30.7645L57.1169 23.2445L55.2546 22.5155L52.3106 30.0354L54.1729 30.7645ZM57.1108 22.5001L50.9988 7.62005L49.1487 8.37995L55.2607 23.2599L57.1108 22.5001ZM50.0737 9H54.4577V7H50.0737V9ZM53.5352 8.38595L57.4712 17.794L59.3163 17.022L55.3803 7.61405L53.5352 8.38595ZM58.3937 18.408H58.4577V16.408H58.3937V18.408ZM59.388 17.775L63.1 8.36702L61.2395 7.63298L57.5275 17.041L59.388 17.775ZM62.1698 9H66.5537V7H62.1698V9ZM65.6257 7.62747L56.6337 30.0275L58.4898 30.7725L67.4818 8.37253L65.6257 7.62747ZM57.5618 29.4H53.2417V31.4H57.5618V29.4ZM100.24 9.984H101.24V9.40677L100.74 9.11806L100.24 9.984ZM100.24 24V25H101.24V24H100.24ZM95.8558 24H94.8558V25H95.8558V24ZM95.8558 11.584H96.8558V10.584H95.8558V11.584ZM91.1838 11.584V10.584H90.1838V11.584H91.1838ZM91.1838 24V25H92.1838V24H91.1838ZM86.7998 24H85.7998V25H86.7998V24ZM86.7998 11.584H87.7998V10.584H86.7998V11.584ZM82.1277 11.584V10.584H81.1277V11.584H82.1277ZM82.1277 24V25H83.1277V24H82.1277ZM77.7438 24H76.7438V25H77.7438V24ZM77.7438 7.84V6.84H76.7438V7.84H77.7438ZM81.3597 7.84L82.2228 7.33482L81.9331 6.84H81.3597V7.84ZM82.1277 9.152L81.2647 9.65718L81.7669 10.5151L82.6278 10.018L82.1277 9.152ZM84.3997 7.84V6.84H84.1318L83.8997 6.97402L84.3997 7.84ZM87.4717 7.84L87.9739 6.97521L87.741 6.84H87.4717V7.84ZM90.4478 9.568L89.9456 10.4328L90.4451 10.7228L90.9459 10.4351L90.4478 9.568ZM93.4557 7.84V6.84H93.189L92.9576 6.97289L93.4557 7.84ZM96.5278 7.84L97.0279 6.97406L96.7958 6.84H96.5278V7.84ZM99.2398 9.984V24H101.24V9.984H99.2398ZM100.24 23H95.8558V25H100.24V23ZM96.8558 24V11.584H94.8558V24H96.8558ZM95.8558 10.584H91.1838V12.584H95.8558V10.584ZM90.1838 11.584V24H92.1838V11.584H90.1838ZM91.1838 23H86.7998V25H91.1838V23ZM87.7998 24V11.584H85.7998V24H87.7998ZM86.7998 10.584H82.1277V12.584H86.7998V10.584ZM81.1277 11.584V24H83.1277V11.584H81.1277ZM82.1277 23H77.7438V25H82.1277V23ZM78.7438 24V7.84H76.7438V24H78.7438ZM77.7438 8.84H81.3597V6.84H77.7438V8.84ZM80.4967 8.34518L81.2647 9.65718L82.9908 8.64682L82.2228 7.33482L80.4967 8.34518ZM82.6278 10.018L84.8998 8.70598L83.8997 6.97402L81.6277 8.28602L82.6278 10.018ZM84.3997 8.84H87.4717V6.84H84.3997V8.84ZM86.9696 8.70479L89.9456 10.4328L90.9499 8.70321L87.9739 6.97521L86.9696 8.70479ZM90.9459 10.4351L93.9539 8.70711L92.9576 6.97289L89.9496 8.70089L90.9459 10.4351ZM93.4557 8.84H96.5278V6.84H93.4557V8.84ZM96.0276 8.70594L99.7396 10.8499L100.74 9.11806L97.0279 6.97406L96.0276 8.70594ZM118.305 20.256H119.305V19.256H118.305V20.256ZM118.305 24V25H119.305V24H118.305ZM108.737 24L108.237 24.8659L108.469 25H108.737V24ZM105.025 21.856H104.025V22.4332L104.525 22.7219L105.025 21.856ZM105.025 9.984L104.525 9.11806L104.025 9.40677V9.984H105.025ZM108.737 7.84V6.84H108.469L108.237 6.97406L108.737 7.84ZM114.593 7.84L115.093 6.97406L114.861 6.84H114.593V7.84ZM118.305 9.984H119.305V9.40677L118.805 9.11806L118.305 9.984ZM118.305 17.632V18.632H119.305V17.632H118.305ZM109.409 17.632V16.632H108.409V17.632H109.409ZM109.409 20.256H108.409V21.256H109.409V20.256ZM109.409 11.584V10.584H108.409V11.584H109.409ZM109.409 14.336H108.409V15.336H109.409V14.336ZM113.921 14.336V15.336H114.921V14.336H113.921ZM113.921 11.584H114.921V10.584H113.921V11.584ZM117.305 20.256V24H119.305V20.256H117.305ZM118.305 23H108.737V25H118.305V23ZM109.237 23.1341L105.525 20.9901L104.525 22.7219L108.237 24.8659L109.237 23.1341ZM106.025 21.856V9.984H104.025V21.856H106.025ZM105.525 10.8499L109.237 8.70594L108.237 6.97406L104.525 9.11806L105.525 10.8499ZM108.737 8.84H114.593V6.84H108.737V8.84ZM114.093 8.70594L117.805 10.8499L118.805 9.11806L115.093 6.97406L114.093 8.70594ZM117.305 9.984V17.632H119.305V9.984H117.305ZM118.305 16.632H109.409V18.632H118.305V16.632ZM108.409 17.632V20.256H110.409V17.632H108.409ZM109.409 21.256H118.305V19.256H109.409V21.256ZM108.409 11.584V14.336H110.409V11.584H108.409ZM109.409 15.336H113.921V13.336H109.409V15.336ZM114.921 14.336V11.584H112.921V14.336H114.921ZM113.921 10.584H109.409V12.584H113.921V10.584Z" fill="#B5E93B" mask="url(#path-1-outside-1_3129_3505)"/>
</svg>
