<svg width="64" height="216" viewBox="0 0 64 216" fill="none" xmlns="http://www.w3.org/2000/svg">
<mask id="path-1-outside-1_3113_1919" maskUnits="userSpaceOnUse" x="8" y="14" width="57" height="203" fill="black">
<rect fill="white" x="8" y="14" width="57" height="203"/>
<path d="M13.2 163.996L51 173.716V180.142L20.706 188.134V188.242L51 196.234V202.66L13.2 212.38V207.142L44.088 199.474V199.366L13.2 191.212V185.164L44.088 177.064V176.956L13.2 169.234V163.996ZM51 152.815L51 158.053H11.58V152.815H25.944L23.73 148.981V140.827L27.348 134.563H51V139.801H28.428V152.815H51ZM61.8 123.454L49.758 118.756L24 129.178V123.94L43.224 116.272V116.164L24 108.55V103.312L61.8 118.324V123.454ZM27.348 47.5665H51V52.8045H28.428V63.1185H51V68.3565H28.428L28.428 78.6705H51V83.9085H23.73V79.9665L25.944 78.6705L23.73 74.8365L23.73 69.3825L26.646 64.3605L23.73 59.2845V53.8305L27.348 47.5665ZM46.302 17.5961H51V32.6621L47.382 38.9261H27.348L23.73 32.6621V23.8601L27.348 17.5961H39.336V33.6881H46.302V17.5961ZM28.428 33.6881H34.638V22.8341H28.428V33.6881Z"/>
</mask>
<path d="M13.2 163.996L13.9471 161.091L10.2 160.127V163.996H13.2ZM51 173.716H54V171.39L51.7471 170.811L51 173.716ZM51 180.142L51.7653 183.043L54 182.453V180.142H51ZM20.706 188.134L19.9407 185.233L17.706 185.823V188.134H20.706ZM20.706 188.242H17.706V190.553L19.9407 191.143L20.706 188.242ZM51 196.234H54V193.923L51.7653 193.333L51 196.234ZM51 202.66L51.7471 205.565L54 204.986V202.66H51ZM13.2 212.38H10.2V216.249L13.9471 215.285L13.2 212.38ZM13.2 207.142L12.4772 204.23L10.2 204.796V207.142H13.2ZM44.088 199.474L44.8108 202.386L47.088 201.82V199.474H44.088ZM44.088 199.366H47.088V197.055L44.8537 196.465L44.088 199.366ZM13.2 191.212H10.2V193.523L12.4343 194.113L13.2 191.212ZM13.2 185.164L12.439 182.262L10.2 182.849V185.164H13.2ZM44.088 177.064L44.849 179.966L47.088 179.379V177.064H44.088ZM44.088 176.956H47.088V174.614L44.8156 174.046L44.088 176.956ZM13.2 169.234H10.2V171.576L12.4724 172.144L13.2 169.234ZM12.4529 166.901L50.2529 176.621L51.7471 170.811L13.9471 161.091L12.4529 166.901ZM48 173.716V180.142H54V173.716H48ZM50.2347 177.241L19.9407 185.233L21.4713 191.035L51.7653 183.043L50.2347 177.241ZM17.706 188.134V188.242H23.706V188.134H17.706ZM19.9407 191.143L50.2347 199.135L51.7653 193.333L21.4713 185.341L19.9407 191.143ZM48 196.234V202.66H54V196.234H48ZM50.2529 199.755L12.4529 209.475L13.9471 215.285L51.7471 205.565L50.2529 199.755ZM16.2 212.38V207.142H10.2V212.38H16.2ZM13.9228 210.054L44.8108 202.386L43.3652 196.562L12.4772 204.23L13.9228 210.054ZM47.088 199.474V199.366H41.088V199.474H47.088ZM44.8537 196.465L13.9657 188.311L12.4343 194.113L43.3223 202.267L44.8537 196.465ZM16.2 191.212L16.2 185.164H10.2V191.212H16.2ZM13.961 188.066L44.849 179.966L43.327 174.162L12.439 182.262L13.961 188.066ZM47.088 177.064V176.956H41.088V177.064H47.088ZM44.8156 174.046L13.9276 166.324L12.4724 172.144L43.3604 179.866L44.8156 174.046ZM16.2 169.234V163.996H10.2V169.234H16.2ZM51 152.815H54V149.815H51V152.815ZM51 158.053V161.053H54V158.053H51ZM11.58 158.053H8.58V161.053H11.58V158.053ZM11.58 152.815V149.815H8.58V152.815H11.58ZM25.944 152.815V155.815H31.1407L28.5419 151.315L25.944 152.815ZM23.73 148.981H20.73V149.785L21.1321 150.481L23.73 148.981ZM23.73 140.827L21.1322 139.327L20.73 140.023V140.827H23.73ZM27.348 134.563V131.563H25.6163L24.7502 133.063L27.348 134.563ZM51 134.563H54V131.563H51V134.563ZM51 139.801V142.801H54V139.801H51ZM28.428 139.801V136.801H25.428V139.801H28.428ZM28.428 152.815H25.428V155.815H28.428V152.815ZM48 152.815L48 158.053H54L54 152.815H48ZM51 155.053H11.58V161.053H51L51 155.053ZM14.58 158.053V152.815H8.58V158.053H14.58ZM11.58 155.815H25.944V149.815H11.58V155.815ZM28.5419 151.315L26.3279 147.481L21.1321 150.481L23.3461 154.315L28.5419 151.315ZM26.73 148.981V140.827H20.73V148.981H26.73ZM26.3278 142.328L29.9458 136.064L24.7502 133.063L21.1322 139.327L26.3278 142.328ZM27.348 137.563H51V131.563H27.348V137.563ZM48 134.563V139.801H54V134.563H48ZM51 136.801H28.428V142.801H51V136.801ZM25.428 139.801V152.815H31.428V139.801H25.428ZM28.428 155.815H51V149.815H28.428V155.815ZM61.8 123.454L60.7096 126.249L64.8 127.844V123.454H61.8ZM49.758 118.756L50.8484 115.961L49.7378 115.528L48.6328 115.975L49.758 118.756ZM24 129.178H21L21 133.628L25.1252 131.959L24 129.178ZM24 123.94L22.8885 121.153L21 121.907V123.94H24ZM43.224 116.272L44.3355 119.058L46.224 118.305V116.272H43.224ZM43.224 116.164H46.224V114.125L44.3287 113.375L43.224 116.164ZM24 108.55H21V110.588L22.8953 111.339L24 108.55ZM24 103.312L25.1073 100.524L21 98.8925V103.312H24ZM61.8 118.324H64.8V116.287L62.9073 115.536L61.8 118.324ZM62.8904 120.659L50.8484 115.961L48.6676 121.551L60.7096 126.249L62.8904 120.659ZM48.6328 115.975L22.8748 126.397L25.1252 131.959L50.8832 121.537L48.6328 115.975ZM27 129.178V123.94H21V129.178H27ZM25.1115 126.726L44.3355 119.058L42.1125 113.485L22.8885 121.153L25.1115 126.726ZM46.224 116.272V116.164H40.224V116.272H46.224ZM44.3287 113.375L25.1047 105.761L22.8953 111.339L42.1193 118.953L44.3287 113.375ZM27 108.55V103.312H21V108.55H27ZM22.8927 106.1L60.6927 121.112L62.9073 115.536L25.1073 100.524L22.8927 106.1ZM58.8 118.324V123.454H64.8V118.324H58.8ZM27.348 47.5665V44.5665H25.6163L24.7502 46.0661L27.348 47.5665ZM51 47.5665H54L54 44.5665H51L51 47.5665ZM51 52.8045V55.8045H54V52.8045H51ZM28.428 52.8045V49.8045H25.428V52.8045H28.428ZM28.428 63.1185H25.428V66.1185H28.428V63.1185ZM51 63.1185H54V60.1185H51V63.1185ZM51 68.3565V71.3565H54V68.3565H51ZM28.428 68.3565V65.3565H25.428V68.3565H28.428ZM28.428 78.6705H25.428V81.6705H28.428V78.6705ZM51 78.6705H54V75.6705H51V78.6705ZM51 83.9085V86.9085H54V83.9085H51ZM23.73 83.9085H20.73V86.9085H23.73V83.9085ZM23.73 79.9665L22.2145 77.3775L20.73 78.2464V79.9665H23.73ZM25.944 78.6705L27.4595 81.2596L30.0333 79.7529L28.5419 77.1703L25.944 78.6705ZM23.73 74.8365H20.73V75.6405L21.1321 76.3367L23.73 74.8365ZM23.73 69.3825L21.1356 67.8761L20.73 68.5747V69.3825H23.73ZM26.646 64.3605L29.2404 65.8669L30.1104 64.3685L29.2473 62.8661L26.646 64.3605ZM23.73 59.2845H20.73V60.0849L21.1287 60.7789L23.73 59.2845ZM23.73 53.8305L21.1322 52.33L20.73 53.0264V53.8305H23.73ZM27.348 50.5665H51L51 44.5665H27.348V50.5665ZM48 47.5665V52.8045H54V47.5665H48ZM51 49.8045H28.428V55.8045H51V49.8045ZM25.428 52.8045V63.1185H31.428V52.8045H25.428ZM28.428 66.1185H51V60.1185H28.428V66.1185ZM48 63.1185V68.3565H54V63.1185H48ZM51 65.3565H28.428V71.3565H51V65.3565ZM25.428 68.3565L25.428 78.6705H31.428L31.428 68.3565H25.428ZM28.428 81.6705H51V75.6705H28.428V81.6705ZM48 78.6705V83.9085H54V78.6705H48ZM51 80.9085H23.73V86.9085H51V80.9085ZM26.73 83.9085V79.9665H20.73V83.9085H26.73ZM25.2455 82.5556L27.4595 81.2596L24.4285 76.0815L22.2145 77.3775L25.2455 82.5556ZM28.5419 77.1703L26.3279 73.3363L21.1321 76.3367L23.3461 80.1707L28.5419 77.1703ZM26.73 74.8365L26.73 69.3825H20.73L20.73 74.8365H26.73ZM26.3244 70.8889L29.2404 65.8669L24.0516 62.8541L21.1356 67.8761L26.3244 70.8889ZM29.2473 62.8661L26.3313 57.7901L21.1287 60.7789L24.0447 65.8549L29.2473 62.8661ZM26.73 59.2845V53.8305H20.73V59.2845H26.73ZM26.3278 55.331L29.9458 49.067L24.7502 46.0661L21.1322 52.33L26.3278 55.331ZM46.302 17.5961V14.5961H43.302V17.5961H46.302ZM51 17.5961H54V14.5961H51V17.5961ZM51 32.6621L53.5978 34.1626L54 33.4662V32.6621H51ZM47.382 38.9261V41.9261H49.1137L49.9798 40.4266L47.382 38.9261ZM27.348 38.9261L24.7502 40.4266L25.6163 41.9261H27.348V38.9261ZM23.73 32.6621H20.73V33.4662L21.1322 34.1626L23.73 32.6621ZM23.73 23.8601L21.1322 22.3596L20.73 23.056V23.8601H23.73ZM27.348 17.5961L27.348 14.5961H25.6163L24.7502 16.0956L27.348 17.5961ZM39.336 17.5961H42.336V14.5961H39.336V17.5961ZM39.336 33.6881H36.336V36.6881H39.336V33.6881ZM46.302 33.6881V36.6881H49.302V33.6881H46.302ZM28.428 33.6881H25.428V36.6881H28.428V33.6881ZM34.638 33.6881V36.6881H37.638V33.6881H34.638ZM34.638 22.8341H37.638V19.8341H34.638V22.8341ZM28.428 22.8341V19.8341H25.428V22.8341H28.428ZM46.302 20.5961H51V14.5961H46.302V20.5961ZM48 17.5961V32.6621H54V17.5961H48ZM48.4022 31.1616L44.7842 37.4256L49.9798 40.4266L53.5978 34.1626L48.4022 31.1616ZM47.382 35.9261H27.348V41.9261H47.382V35.9261ZM29.9458 37.4256L26.3278 31.1616L21.1322 34.1626L24.7502 40.4266L29.9458 37.4256ZM26.73 32.6621V23.8601H20.73V32.6621H26.73ZM26.3278 25.3605L29.9458 19.0966L24.7502 16.0956L21.1322 22.3596L26.3278 25.3605ZM27.348 20.5961H39.336V14.5961H27.348L27.348 20.5961ZM36.336 17.5961V33.6881H42.336V17.5961H36.336ZM39.336 36.6881H46.302V30.6881H39.336V36.6881ZM49.302 33.6881V17.5961H43.302V33.6881H49.302ZM28.428 36.6881H34.638V30.6881H28.428V36.6881ZM37.638 33.6881V22.8341H31.638V33.6881H37.638ZM34.638 19.8341H28.428V25.8341H34.638V19.8341ZM25.428 22.8341V33.6881H31.428V22.8341H25.428Z" fill="#B5E93B" mask="url(#path-1-outside-1_3113_1919)"/>
</svg>
