<svg width="23" height="145" viewBox="0 0 23 145" fill="none" xmlns="http://www.w3.org/2000/svg">
<path d="M22.5 10.3169V13.2269L0.599976 13.2269L0.599976 10.3169H8.57998L7.34998 8.18692L7.34998 3.65692L9.35997 0.176926L22.5 0.176926V3.08693L9.95998 3.08693V10.3169L22.5 10.3169Z" fill="#4A4A4A"/>
<path d="M10.11 25.7564H19.89V17.4164H22.5V25.1864L20.49 28.6664H9.51L7.5 25.1864L7.5 17.4164H10.11V25.7564Z" fill="#4A4A4A"/>
<path d="M7.49998 33.4615H22.5V36.3715H7.49998V33.4615ZM3.80998 36.5215H0.599976L0.599976 33.3115H3.80998V36.5215Z" fill="#4A4A4A"/>
<path d="M9.35997 48.9647H22.5V51.8747H9.95997V57.6047H22.5V60.5147H9.95997V66.2447H22.5V69.1547H7.34998V66.9647L8.57998 66.2447L7.34998 64.1147L7.34998 61.0847L8.96997 58.2947L7.34998 55.4747V52.4447L9.35997 48.9647Z" fill="#4A4A4A"/>
<path d="M20.64 86.7035H7.5V83.7935H20.04V76.8635H7.5V73.9535H22.65V76.1435L21.42 76.8635L22.65 78.9935V83.2235L20.64 86.7035Z" fill="#4A4A4A"/>
<path d="M10.11 89.9936V95.4536H22.5V98.3636H7.5V96.1736L8.73 95.4536L7.5 93.3237L7.5 89.9936H10.11Z" fill="#4A4A4A"/>
<path d="M16.35 112.108H20.04V106.078H16.35V112.108ZM22.65 111.538L20.64 115.018H15.75L13.74 111.538V106.078H10.11V113.518H7.5L7.5 106.648L9.51 103.168H22.65V103.948L21.42 106.078L22.65 108.208V111.538Z" fill="#4A4A4A"/>
<path d="M1.5 117.72L22.5 123.12V126.69L5.67 131.13V131.19L22.5 135.63V139.2L1.5 144.6L1.5 141.69L18.66 137.43V137.37L1.5 132.84L1.5 129.48L18.66 124.98V124.92L1.5 120.63V117.72Z" fill="#4A4A4A"/>
</svg>
